<svg xmlns="http://www.w3.org/2000/svg" xmlns:xlink="http://www.w3.org/1999/xlink" viewBox="0 0 234.09 328.15"><defs><style>.cls-1{isolation:isolate;}.cls-2{fill:#0b74b8;}.cls-3{fill:#2eaade;}.cls-4{fill:#ebebeb;}.cls-5{opacity:0.2;fill:url(#linear-gradient);}.cls-5,.cls-7{mix-blend-mode:multiply;}.cls-6{fill:#fff;}.cls-7{opacity:0.3;fill:url(#linear-gradient-2);}</style><linearGradient id="linear-gradient" x1="113.17" y1="158.72" x2="59.33" y2="184.73" gradientUnits="userSpaceOnUse"><stop offset="0" stop-color="#fff"/><stop offset="1"/></linearGradient><linearGradient id="linear-gradient-2" x1="117.03" y1="141.95" x2="190.44" y2="141.95" xlink:href="#linear-gradient"/></defs><g class="cls-1"><g id="Layer_2" data-name="Layer 2"><g id="shields"><polygon points="55.84 0 55.84 12.49 55.84 28.74 55.84 41.23 69.62 41.23 88.91 41.23 88.91 28.74 69.62 28.74 69.62 12.49 88.91 12.49 88.91 0 69.62 0 55.84 0"/><polygon points="95.47 11.03 113.87 30.2 95.47 30.2 95.47 41.23 133.07 41.23 133.07 30.2 115.48 11.03 133.07 11.03 133.07 0 95.47 0 95.47 11.03"/><polygon points="178.25 0 140.64 0 140.64 11.03 159.04 30.2 140.64 30.2 140.64 41.23 178.25 41.23 178.25 30.2 160.65 11.03 178.25 11.03 178.25 0"/><polygon class="cls-2" points="116.9 328.14 21.3 301.61 0 62.66 234.09 62.66 212.76 301.57 116.9 328.14"/><polygon class="cls-3" points="194.5 286.36 212.73 82.2 117.04 82.2 117.04 307.83 194.5 286.36"/><polygon class="cls-4" points="51.55 200.51 187.81 141.2 190.44 111.89 48.94 171.21 51.55 200.51"/><polygon class="cls-5" points="51.55 200.51 187.81 141.2 190.44 111.89 48.94 171.21 51.55 200.51"/><polygon class="cls-4" points="117.03 111.89 43.65 111.89 44.35 119.75 46.26 141.2 117.13 141.2 117.13 111.89 117.03 111.89"/><polygon class="cls-6" points="185.15 171.21 117.03 171.21 117.03 200.51 153.12 200.51 149.71 238.52 117.03 247.34 117.03 277.83 177.1 261.18 185.15 171.21"/><polygon class="cls-6" points="117.03 142.67 117.03 172.01 187.81 141.2 190.44 111.89 117.03 142.67"/><polygon class="cls-7" points="117.03 142.67 117.03 172.01 187.81 141.2 190.44 111.89 117.03 142.67"/><polygon class="cls-4" points="48.94 171.21 51.55 200.51 117.13 200.51 117.13 171.21 48.94 171.21"/><polygon class="cls-6" points="190.44 111.89 117.03 111.89 117.03 141.13 117.03 141.2 187.72 141.2 187.72 141.2 187.81 141.2 190.44 111.89"/><polygon class="cls-4" points="117.03 247.35 117.03 247.35 84.39 238.54 82.31 215.17 66.45 215.17 52.89 215.17 57 261.18 117.02 277.85 117.03 277.84 117.03 247.35"/></g></g></g></svg>