<svg width="242" height="130" viewBox="0 0 242 130" fill="none" xmlns="http://www.w3.org/2000/svg">
<g clip-path="url(#clip0_1_979)">
<path d="M178.065 54.9502C178.19 54.9814 178.315 55.0126 178.44 55.0126C178.815 55.0282 179.206 54.9191 179.566 54.7943C179.925 54.654 180.316 54.5292 180.644 54.3265C180.863 54.1862 181.082 54.0147 181.301 53.8587C181.598 53.6248 181.832 53.2506 181.942 52.8608C181.989 52.7672 182.02 52.6892 182.067 52.5957C182.067 52.5645 182.067 52.5333 182.082 52.4865C183.255 51.8316 184.224 51.3794 184.849 51.2235C190.399 49.8201 195.37 54.233 200.044 56.416C204.796 58.6458 211.252 58.1468 216.317 57.1177C220.912 56.1821 225.399 54.1238 230.151 53.9679C232.433 53.8899 234.794 54.4513 236.904 55.2621C239.124 56.1197 240.265 57.4607 242.016 58.8017C241.656 52.8296 236.841 47.6215 232.152 44.3781C229.541 42.5693 224.445 39.1232 221.084 39.1076C217.333 39.092 214.269 42.9903 211.033 44.3625C207.735 45.7659 201.45 46.6703 198.183 45.1578C194.963 43.6608 192.712 39.8717 189.945 37.6886C187.6 35.8487 183.958 34.7883 182.457 37.9069C181.989 38.8737 179.534 43.1462 178.846 44.0974C178.08 45.1734 177.174 46.1245 176.205 47.0445C176.033 46.9666 175.861 46.9198 175.673 46.9198C175.47 46.9198 175.251 46.951 175.048 47.0133C175.001 47.0133 174.97 47.0445 174.923 47.0601C174.595 47.1693 174.391 47.2628 174.126 47.4811C173.875 47.6838 173.688 47.9333 173.5 48.1672C173.125 48.6506 172.969 49.2276 172.906 49.8357C172.906 49.8825 172.906 49.9293 172.906 49.976C166.106 55.5116 157.055 57.8038 149.161 61.2655C146.347 62.4973 142.221 64.1502 140.579 66.9414C138.156 67.3156 134.483 64.9766 132.45 63.8851C130.356 62.7624 127.683 61.5305 126.135 59.6594C120.961 53.3753 112.957 47.7618 106.439 49.134C107.064 45.7035 110.034 44.4093 108.049 40.6981C107.736 40.1212 107.252 39.6534 106.814 39.1856C105.86 38.1876 104.876 37.2053 103.891 36.2385C103.969 36.1293 104.031 36.0046 104.078 35.8798C104.156 35.6459 104.172 35.3185 104.094 35.1002C104.063 34.9287 103.984 34.7883 103.891 34.6636C103.813 34.5232 103.703 34.4141 103.547 34.3361C103.312 34.1178 102.984 33.9775 102.656 33.9619C102.546 33.9619 102.437 33.9775 102.312 33.9931C102.187 34.0087 102.077 34.071 101.968 34.1178C101.905 34.149 101.843 34.1802 101.796 34.227C101.218 33.6812 100.655 33.1354 100.076 32.6053C97.7786 30.5158 95.4025 28.5355 92.9483 26.6331C91.7602 25.7131 90.5409 24.8555 89.306 23.9979L89.5092 23.9511C89.5092 23.9511 92.7138 18.5091 95.0586 14.5328C95.1368 14.5016 95.2305 14.4861 95.3087 14.4549C95.5119 14.4081 95.6839 14.3145 95.8402 14.1742C96.0903 14.0183 96.2935 13.8155 96.4498 13.5505C96.528 13.3789 96.6062 13.1918 96.7 13.0203C96.825 12.6305 96.8406 12.225 96.7469 11.8196C96.7469 11.7884 96.7312 11.7573 96.7156 11.7417C97.1845 10.9464 97.4816 10.4474 97.4816 10.4318C97.5285 10.3539 100.342 9.79252 100.764 9.6054C101.733 9.1532 102.687 8.63863 103.672 8.23321C103.672 8.23321 104.672 8.99727 104.891 9.02846C105.391 9.12202 105.782 8.98168 106.22 8.74778C107.33 8.12405 107.345 7.21965 106.939 6.15932C106.267 4.36611 104.469 4.56882 103.125 3.60204C103.984 3.53967 106.361 4.50645 106.439 3.10306C104.719 2.47934 103 1.30985 101.093 1.63731C98.8728 2.01154 97.3878 4.00747 95.2462 4.45967C94.4958 2.65086 95.4494 0.561382 92.8545 -0.015564C92.3542 0.45223 93.1515 2.1207 93.1984 2.85357C93.3234 4.50645 93.0421 6.23728 92.4637 7.84338C92.4324 7.84338 92.4011 7.84338 92.3699 7.84338C92.151 7.84338 91.9322 7.89016 91.729 7.98372C91.4163 8.07727 91.1349 8.23321 90.9005 8.4671C90.6035 8.76337 90.3846 9.12201 90.2439 9.51184C90.1345 9.82371 90.1032 10.1356 90.1658 10.463C90.1658 10.7905 90.2595 11.1023 90.4315 11.3986C90.4315 11.3986 90.4315 11.4142 90.4471 11.4298C89.1809 12.9891 86.0076 16.7782 83.8035 18.4779L80.6615 15.8271C80.6615 15.8271 80.6615 15.8115 80.6771 15.7959C80.724 15.6867 80.7709 15.5932 80.8178 15.484C80.8647 15.3749 80.8803 15.2501 80.8803 15.141C80.8803 15.1254 80.8803 15.0942 80.8803 15.0786C80.8803 15.0786 80.8803 15.0786 80.8647 15.0786C80.8647 15.0786 80.8647 15.063 80.8647 15.0474C80.9272 14.9227 80.9741 14.7979 80.9741 14.6732C81.021 14.4861 81.021 14.2989 80.9741 14.0962C80.9428 13.9091 80.849 13.722 80.724 13.5817C80.6302 13.4257 80.4895 13.2854 80.3332 13.1918C80.2238 13.145 80.1143 13.0827 80.0049 13.0359C79.7548 12.9579 79.5047 12.9423 79.2546 13.0047C79.1295 13.0515 79.0045 13.0983 78.895 13.145C78.6762 13.2698 78.4886 13.4413 78.3635 13.644C78.3323 13.6908 78.3166 13.7376 78.2854 13.7844L76.9254 12.6305C76.9254 12.6305 73.1112 9.30913 68.656 13.223C68.6248 13.0983 68.5622 13.0047 68.4684 12.9267C68.3747 12.7864 68.234 12.6617 68.0776 12.5837C67.9682 12.5369 67.8432 12.4901 67.7337 12.4589C67.5931 12.4278 67.4367 12.4122 67.296 12.4434C67.2022 12.4434 67.0928 12.4278 67.0303 12.4278C66.8896 12.4278 66.7333 12.4589 66.5926 12.5057C66.3112 12.5993 66.0767 12.7708 65.8735 12.9579C63.7476 11.7728 62.6064 10.4162 63.3255 7.7966C63.4505 7.3444 63.7163 6.93898 63.8726 6.54915C63.9977 6.64271 64.1227 6.68949 64.2478 6.70508C64.3728 6.75186 64.5135 6.81423 64.6386 6.86101C64.8105 6.92338 64.9981 6.78304 65.0607 6.64271C65.0919 6.56474 65.0919 6.50237 65.0607 6.44C65.1075 6.39322 65.1544 6.34644 65.1857 6.28406C65.2951 6.11254 65.3264 5.80068 65.2482 5.59797C65.217 5.52 65.1857 5.45763 65.1544 5.39525C65.1544 5.39525 65.1544 5.37966 65.1544 5.36407C65.0294 5.13017 64.9043 4.91187 64.7168 4.69356C64.6386 4.6156 64.5604 4.53763 64.4666 4.45967C64.3572 4.3817 64.2478 4.30374 64.1384 4.24136C63.8101 3.94509 63.4349 3.6956 63.0441 3.49289C62.669 3.30577 62.2156 3.39933 61.9811 3.74238C61.7936 3.99187 61.7779 4.35051 61.9186 4.6156C61.903 4.69356 61.8873 4.78712 61.903 4.86509C60.8087 5.08339 59.9959 6.25288 59.6989 7.26643C60.1366 7.51592 60.7462 8.38914 60.7462 8.38914L59.3393 10.7593C59.3393 10.7593 58.3389 5.03661 55.0561 4.00747C50.9605 2.71324 46.99 6.25288 46.99 6.25288C46.99 6.25288 45.3643 3.30577 42.5036 2.40137C38.2204 1.04477 32.9211 2.43256 29.9667 6.00339C28.5285 7.73423 27.3248 10.5566 26.637 13.5037C26.215 13.5037 25.8554 13.7376 25.449 14.0494C22.0568 16.6535 26.2306 24.4345 26.2931 24.4968C26.3244 24.5592 26.3557 24.6372 26.3869 24.6996C26.6214 25.1518 26.9966 25.5104 27.3405 25.8846C27.7469 26.3212 28.3097 26.3992 28.8255 26.2277C28.8255 26.2277 28.8255 26.2589 28.8412 26.2745C29.06 26.8826 29.2007 27.4907 29.3258 28.1145C29.1069 28.1768 28.9037 28.286 28.7317 28.4419C28.5754 28.5355 28.4347 28.629 28.3097 28.7538C28.0908 28.9877 27.9501 29.2528 27.872 29.5646C27.8094 29.8765 27.8094 30.1883 27.9032 30.4846C27.9345 30.6561 27.9814 30.8433 28.0596 30.9992C28.0908 31.0772 28.1221 31.1395 28.1533 31.2175C28.2471 31.5294 28.3409 31.8412 28.5441 32.1219C28.6379 32.2466 28.7317 32.387 28.8255 32.5117C27.6375 33.9307 27.278 36.1449 27.5593 37.8758C28.4035 43.1774 33.8122 46.5611 38.5487 48.0113C41.0654 48.7754 43.6916 49.1028 46.3178 49.1964C46.9431 49.212 49.4911 49.3211 50.132 49.3211C49.8976 50.0072 47.3964 57.0397 47.3964 57.0397C44.1293 56.7123 27.1216 54.077 24.9488 52.814C24.0734 52.2994 21.2752 49.3679 20.3061 51.7848C17.2578 52.0655 14.9443 48.4323 12.3493 47.294C11.5834 46.9666 10.6298 47.0133 9.81693 46.8106C9.50429 46.7327 7.89419 45.953 7.67534 46.0933C5.92455 47.2472 10.0827 49.4926 10.6923 49.711C8.87901 49.8045 6.45604 48.2764 4.90847 48.5415C3.23583 48.8377 1.53194 50.5842 0.515855 51.8472C-0.406436 52.9855 0.750336 53.0167 0.515855 54.4357C0.203214 56.3224 -0.891031 61.0316 2.54802 60.3611C3.01699 60.2675 3.51721 58.7082 4.34571 58.2092C7.44086 56.338 11.427 58.4119 14.8036 57.9285C15.7259 57.8038 16.9295 57.336 17.8206 57.8506C18.6959 58.3495 18.7741 59.4723 19.7746 59.8933C21.1033 60.4546 21.2596 59.3007 22.3851 59.1448C24.5736 58.8485 50.2727 67.5027 51.2575 66.9726C52.0235 66.5515 54.8685 62.6221 56.0722 60.7353C57.8386 62.5597 59.6207 64.3529 61.4496 66.1149C63.6381 68.22 65.9673 70.1536 68.7655 71.4166C74.1116 73.8335 80.3488 73.7556 85.6168 71.1983C86.9455 70.559 88.1805 69.7637 89.3373 68.8437C96.0121 74.3169 107.377 84.9203 128.027 88.2572C130.262 88.6158 132.06 90.144 134.279 89.5046C143.08 86.9786 151.397 84.0938 160.541 83.0023C169.264 81.9576 178.08 81.8796 186.834 82.5345C186.834 82.5657 186.85 82.5969 186.866 82.6125C186.866 82.6281 186.881 82.6437 186.897 82.6748C186.975 82.8152 187.085 82.9555 187.194 83.0803C187.21 83.1114 187.241 83.127 187.257 83.1582C187.382 83.283 187.522 83.3921 187.679 83.5013C187.679 83.5013 187.679 83.5013 187.694 83.5013C187.835 83.5637 187.976 83.626 188.101 83.6884C188.116 83.6884 188.132 83.6884 188.148 83.6884C188.319 83.7352 188.507 83.7664 188.695 83.782C188.742 83.782 188.788 83.782 188.82 83.782C189.039 83.782 189.289 83.7664 189.508 83.704C189.617 83.6728 189.726 83.626 189.836 83.5948C189.961 83.5481 190.07 83.5169 190.164 83.4545C190.352 83.3298 190.555 83.1894 190.727 83.0335C196.933 84.4681 202.857 89.4735 206.343 94.6192C207.516 96.35 208.579 98.268 209.595 100.092C211.674 103.882 213.581 107.733 214.628 111.928C216.113 117.9 215.816 123.81 215.848 129.922C217.989 130.156 220.459 127.817 222.053 126.616C224.945 124.418 227.275 121.439 228.791 118.18C231.855 111.585 233.887 103.273 229.197 97.0205C224.961 91.3758 218.255 87.9609 212.08 84.8735C208.172 82.9087 206.734 80.4918 204.592 76.765C203.154 74.2545 200.372 71.7752 197.245 73.319C195.338 74.2545 192.181 74.8471 190.367 75.003C190.148 74.7847 189.898 74.582 189.601 74.504C189.351 74.4261 189.07 74.3949 188.804 74.3481C188.382 74.2857 187.913 74.3013 187.507 74.4105C187.21 74.4884 186.991 74.6132 186.756 74.7847C179.566 74.0674 163.777 71.9624 155.336 72.3678C156.837 70.3875 169.608 60.4702 178.112 54.9035L178.065 54.9502ZM53.6336 6.48677C55.7127 7.01694 58.4639 11.7884 57.1508 11.3206C52.6488 9.66778 48.9127 9.58981 48.9127 9.58981C48.9127 9.58981 50.132 5.61356 53.618 6.48677H53.6336ZM49.7725 47.3252C48.7564 47.372 46.6617 47.3252 45.6456 47.2784C41.2687 47.0757 36.5009 46.0933 32.9837 43.3334C31.1547 41.8988 29.5915 39.9964 29.0131 37.7042C28.6223 36.1449 28.9662 34.7104 29.7478 33.4629C29.7635 33.4629 29.7947 33.4941 29.8103 33.5097C30.1074 33.6656 30.42 33.7436 30.7639 33.728C31.0922 33.728 31.3892 33.6188 31.6549 33.4473C31.9363 33.2758 32.1395 33.0419 32.2958 32.7612C32.4522 32.4649 32.5303 32.1531 32.5147 31.81C32.5147 31.7009 32.5147 31.6073 32.4991 31.4982C36.6572 33.728 39.4866 32.9795 42.9725 28.5511C44.567 30.1104 45.5206 31.9504 45.4268 34.2426C45.3486 35.8798 44.4263 37.2053 44.9735 38.7802C45.63 40.6825 51.6327 42.3042 49.7569 47.3252H49.7725ZM56.2129 18.3843C56.0878 18.5091 55.9784 18.6338 55.8846 18.743C55.3844 19.3979 55.4157 19.5382 54.6341 19.6162C54.1964 19.663 53.2741 19.7098 52.9145 19.5382C52.0079 20.2711 51.6014 21.3782 50.7886 22.1735C50.0851 21.7213 49.2097 20.2243 48.9753 19.4135C48.5063 17.7918 49.1159 15.7647 48.8971 14.0494C48.7877 13.2074 48.2562 12.1627 48.3343 11.3362C48.3656 10.9932 53.7743 11.9444 56.4943 13.722C56.4005 13.9091 56.3067 14.0962 56.2129 14.2833C56.1347 14.4393 56.0566 14.5952 55.9784 14.7511C55.8846 14.9383 55.8065 15.0942 55.7752 15.3125C55.7283 15.5932 55.7752 15.8894 55.9003 16.1545C56.0878 16.4976 56.4161 16.7471 56.7131 17.0121C56.8382 17.1213 56.9632 17.246 57.0883 17.3552C57.1196 17.3708 57.1352 17.402 57.1665 17.4176C56.8538 17.7606 56.5099 18.0725 56.2129 18.3843ZM85.6325 69.5454C83.3033 70.8241 80.7084 71.6193 78.0509 71.7908C75.2371 71.978 72.3921 71.4946 69.7815 70.4342C67.0459 69.3271 64.748 67.4871 62.6221 65.4912C60.6055 63.5888 57.9168 60.1116 56.9945 59.176C58.5421 56.6343 59.6051 54.4825 59.9177 53.6404C65.2013 57.8818 70.188 62.8716 76.8472 64.7739C78.6918 65.3041 83.6628 65.2573 85.3198 66.1149C86.117 66.5359 87.0237 67.1753 88.0398 67.9705C87.2738 68.5631 86.4766 69.0932 85.6325 69.561V69.5454Z" fill="#004F6C"/>
</g>
<defs>
<clipPath id="clip0_1_979">
<rect width="242" height="130" fill="white"/>
</clipPath>
</defs>
</svg>
