<svg width="112" height="61" viewBox="0 0 112 61" fill="none" xmlns="http://www.w3.org/2000/svg">
<g clip-path="url(#clip0_1_935)">
<path d="M95.3793 43.8354C95.3793 53.1239 83.3754 60.6742 68.6557 60.6742C53.936 60.6742 41.8778 53.1239 41.8778 43.8354C41.8778 34.5469 53.8817 26.9966 68.6557 26.9966C83.4297 26.9966 95.3793 34.5469 95.3793 43.8354Z" fill="#FFE045"/>
<path d="M17.7071 22.5967C17.7071 22.5967 22.4326 6.68127 34.5451 2.66168C45.6256 -0.977681 49.5364 0.163014 54.3705 0.163014C59.2047 0.163014 68.6557 2.00985 71.4258 2.93327C80.0078 5.81217 84.6246 9.99471 90.6537 18.2512C91.4685 19.3375 98.7469 27.4854 98.8012 28.5174C99.0184 36.3393 83.7013 29.984 83.7013 29.984L59.9108 22.8139L40.6285 17.4907L17.7614 22.5967H17.7071Z" fill="#FFE045"/>
<path d="M112 28.8433V42.4773C112 45.2476 110.045 46.4426 107.6 45.0303L92.8264 36.5022C90.3822 35.09 90.3822 32.8086 92.8264 31.3963L107.6 22.8682C110.045 21.4559 112 22.5966 112 25.4212V28.8976V28.8433Z" fill="#FFC533"/>
<path d="M78.324 15.6981C70.6654 8.79963 54.5335 5.26891 38.0213 7.44166C31.0146 8.36508 24.7139 9.88601 20.3686 14.3402C18.1416 16.8388 16.5121 18.4684 13.2532 25.041C11.1891 29.1692 11.2435 33.2431 7.93017 35.959C7.76722 36.122 7.54996 36.2306 7.38701 36.3936C6.30069 37.317 -0.162942 38.7293 6.65089e-06 39.8157C0.325904 42.4773 4.12804 42.4773 7.65859 44.813C8.0388 45.0846 11.9496 47.6919 12.2755 48.0178C27.5926 63.0641 42.9641 60.837 44.5936 60.7827C56.2173 60.4568 69.2532 59.5334 77.6722 53.9386C81.5829 51.3312 84.8419 47.9635 87.8836 44.4328C89.4588 42.6402 90.8167 40.6848 92.4462 39.0009C93.3152 38.1318 93.8041 37.7515 94.8904 37.0997C95.8681 36.5022 97.9321 35.8504 98.4753 34.7097C98.9098 33.8406 98.8012 32.4826 98.0951 31.7765C97.2803 30.9617 94.9447 30.4728 93.8584 30.0383C93.0437 29.7124 92.2832 29.2235 91.5771 28.7346C89.9476 27.5396 88.4811 26.073 87.0689 24.6064C84.4074 21.7818 81.257 18.3597 78.3783 15.7524L78.324 15.6981Z" fill="#FFFC33"/>
<path d="M21.7265 30.473C21.7265 28.8434 20.4229 27.5398 18.7934 27.5398C17.1639 27.5398 15.8603 28.8434 15.8603 30.473C15.8603 32.1026 17.1639 33.4062 18.7934 33.4062C20.4229 33.4062 21.7265 32.1026 21.7265 30.473Z" fill="white"/>
<path d="M20.6401 30.4729C20.6401 29.4409 19.7711 28.5718 18.7391 28.5718C17.7071 28.5718 16.838 29.4409 16.838 30.4729C16.838 31.505 17.7071 32.3741 18.7391 32.3741C19.7711 32.3741 20.6401 31.505 20.6401 30.4729Z" fill="#454545"/>
<g style="mix-blend-mode:multiply">
<path d="M41.3889 34.8184C41.3889 35.9591 41.3346 37.0998 41.1717 38.2405C40.3026 45.9538 36.5548 52.3091 31.5034 55.025C35.6314 51.3856 38.5102 44.976 39.1077 37.48C39.162 36.6109 39.2163 35.7418 39.2163 34.8184C39.2163 33.8407 39.2163 32.9172 39.1077 31.9938C38.5102 24.5522 35.6314 18.1969 31.5577 14.6118C36.5548 17.3278 40.3026 23.5744 41.1717 31.2334C41.3346 32.3741 41.3889 33.6234 41.3889 34.8727V34.8184Z" fill="#FFE045"/>
</g>
<path d="M58.3899 34.7098C58.3899 38.4035 56.0543 41.4453 49.3191 41.4453C47.2551 41.4453 44.7566 40.8478 42.258 39.9787C41.226 39.6528 40.194 39.2182 39.162 38.838C39.2706 37.5344 39.3249 36.2307 39.3249 34.9271C39.3249 33.5148 39.3249 32.1025 39.162 30.7445C40.1397 30.31 41.1717 29.9297 42.2037 29.6038C44.7022 28.7347 47.2551 28.1372 49.3191 28.1372C56.1086 28.1372 58.3899 31.1247 58.3899 34.8727V34.7098Z" fill="#FFE045"/>
</g>
<defs>
<clipPath id="clip0_1_935">
<rect width="112" height="61" fill="white"/>
</clipPath>
</defs>
</svg>
