<svg width="572" height="476" viewBox="0 0 572 476" fill="none" xmlns="http://www.w3.org/2000/svg">
<g style="mix-blend-mode:multiply" opacity="0.5">
<path d="M167.359 294.919C167.775 297.281 170.015 299.907 170.015 299.907C170.015 299.907 172.114 298.853 171.886 296.395C171.764 295.171 171.091 293.84 170.446 292.795C171.581 292.849 172.966 292.517 174.34 291.858C174.71 292.141 175.115 292.372 175.546 292.504C177.562 293.058 179.364 291.451 179.592 288.885C179.653 288.179 179.614 287.15 179.483 286.016C180.604 282.166 180.967 275.681 179.41 274.435C177.716 273.085 169.931 276.872 168.236 279.713C168.054 280.028 167.888 280.332 167.735 280.655C167.19 280.766 166.651 280.955 166.351 281.126C165.576 281.583 165.321 282.584 165.788 283.358C166.043 283.744 166.416 283.997 166.834 284.109C166.564 286.508 166.945 288.921 167.574 290.531C166.502 290.296 165.14 290.142 164.167 290.646C162.349 291.57 162.612 294.394 162.612 294.394C162.612 294.394 165.525 295.577 167.362 294.889L167.359 294.919Z" fill="#3CAADD"/>
<path d="M217.011 259.706C215.86 261.466 216.104 264.747 216.104 264.747C216.104 264.747 218.574 265.64 219.938 263.96C220.62 263.121 220.894 261.802 220.999 260.678C221.943 261.552 223.338 262.379 224.92 262.97C225.064 263.43 225.255 263.859 225.54 264.254C226.899 266.103 229.486 266.446 231.313 265.016C231.814 264.629 232.448 263.96 233.038 263.154C236.447 261.622 240.892 257.878 240.355 255.957C239.761 253.88 230.682 250.474 227.415 250.941C227.055 250.985 226.72 251.067 226.385 251.15C225.843 250.815 225.265 250.53 224.892 250.416C223.929 250.137 223.083 250.557 222.982 251.374C222.937 251.792 223.097 252.241 223.4 252.596C221.634 253.875 220.422 255.647 219.941 257.103C219.182 256.162 218.097 255.075 216.955 254.665C214.798 253.898 213.242 255.842 213.242 255.842C213.242 255.842 214.982 258.717 217.002 259.657L217.011 259.706Z" fill="#3CAADD"/>
<path d="M153.085 254.371C151.935 256.131 152.178 259.411 152.178 259.411C152.178 259.411 154.648 260.304 156.012 258.625C156.694 257.786 156.968 256.467 157.073 255.343C158.018 256.217 159.412 257.044 160.994 257.635C161.138 258.095 161.33 258.524 161.626 258.938C162.986 260.787 165.573 261.13 167.4 259.7C167.917 259.303 168.535 258.644 169.125 257.838C172.534 256.306 176.979 252.562 176.442 250.642C175.848 248.564 166.768 245.159 163.486 245.635C163.126 245.679 162.791 245.762 162.456 245.845C161.914 245.509 161.336 245.225 160.963 245.111C159.987 244.813 159.142 245.233 159.053 246.069C159.008 246.487 159.168 246.936 159.471 247.291C157.705 248.57 156.493 250.342 156.012 251.798C155.253 250.857 154.168 249.77 153.026 249.36C150.869 248.593 149.313 250.537 149.313 250.537C149.313 250.537 151.053 253.411 153.073 254.352L153.085 254.371Z" fill="#3CAADD"/>
<path d="M66.1448 352.37C64.8314 353.988 64.8137 357.219 64.8137 357.219C64.8137 357.219 67.2448 358.332 68.7689 356.825C69.5309 356.071 69.9035 354.798 70.1072 353.72C71.0007 354.655 72.3377 355.603 73.8883 356.354C73.9874 356.816 74.1471 357.266 74.4152 357.671C75.6473 359.604 78.2377 360.195 80.1893 358.988C80.7155 358.64 81.4138 358.068 82.0992 357.337C85.6777 356.165 90.4832 352.932 90.0963 350.995C89.6807 348.911 80.7633 344.676 77.4268 344.828C77.0696 344.842 76.7092 344.886 76.3775 344.939C75.8414 344.544 75.3117 344.228 74.9417 344.084C73.9877 343.716 73.0788 344.039 72.9197 344.838C72.8465 345.248 72.9775 345.688 73.2328 346.075C71.3386 347.16 69.9645 348.79 69.3591 350.162C68.6633 349.179 67.6643 347.98 66.5317 347.48C64.426 346.513 62.682 348.276 62.682 348.276C62.682 348.276 64.2017 351.268 66.1576 352.39L66.1448 352.37Z" fill="#3CAADD"/>
<path d="M22.02 317.097C20.199 318.052 19.1828 320.916 19.1828 320.916C19.1828 320.916 21.2825 322.775 23.263 321.993C24.2549 321.587 25.0264 320.605 25.565 319.722C26.1684 320.877 27.1993 322.194 28.5524 323.408C28.5047 323.856 28.5304 324.311 28.6742 324.771C29.3036 326.936 31.7157 328.367 34.0664 328.006C34.7139 327.911 35.575 327.619 36.4776 327.217C40.4394 327.456 46.2379 326.315 46.4508 324.453C46.6795 322.443 39.0432 315.501 35.6424 314.447C35.2691 314.333 34.9086 314.238 34.5449 314.173C34.1428 313.634 33.6896 313.157 33.3769 312.892C32.544 312.221 31.5392 312.192 31.1281 312.852C30.9304 313.177 30.9115 313.634 31.0584 314.064C28.8193 314.351 26.941 315.287 25.8984 316.31C25.5151 315.175 24.8637 313.774 23.9032 312.91C22.0875 311.308 19.7945 312.241 19.7945 312.241C19.7945 312.241 20.3892 315.428 22.0168 317.127L22.02 317.097Z" fill="#3CAADD"/>
<path d="M-11.3166 281.853C-13.3195 282.428 -14.8335 284.955 -14.8335 284.955C-14.8335 284.955 -13.0048 287.132 -10.8582 286.74C-9.78654 286.559 -8.82678 285.758 -8.13814 284.997C-7.71971 286.219 -6.86737 287.682 -5.71202 289.083C-5.82985 289.494 -5.8775 289.942 -5.82306 290.405C-5.53498 292.574 -3.32999 294.419 -0.892949 294.5C-0.213513 294.523 0.730621 294.426 1.68746 294.21C5.6592 295.192 11.7645 295.208 12.274 293.483C12.8282 291.618 6.21844 283.527 2.92582 281.873C2.57486 281.689 2.22072 281.535 1.86341 281.41C1.54097 280.818 1.15475 280.269 0.877094 279.953C0.133499 279.14 -0.880955 278.923 -1.38469 279.478C-1.63655 279.755 -1.72568 280.175 -1.65529 280.628C-3.98072 280.472 -6.0379 281 -7.26242 281.782C-7.47986 280.621 -7.88881 279.171 -8.74415 278.154C-10.3367 276.265 -12.8022 276.729 -12.8022 276.729C-12.8022 276.729 -12.7083 279.887 -11.3421 281.814L-11.3166 281.853Z" fill="#3CAADD"/>
<path d="M48.8714 294.877C47.423 294.419 45.653 295.173 45.653 295.173C45.653 295.173 46.1132 296.978 47.5935 297.554C48.3464 297.861 49.1981 297.797 49.8647 297.662C49.7374 298.44 49.8177 299.497 50.0957 300.646C49.8852 300.812 49.729 301.027 49.6111 301.299C49.095 302.528 49.9155 304.289 51.4311 305.23C51.8619 305.5 52.484 305.783 53.154 306.034C55.359 308.018 59.2102 310.273 60.0998 309.574C61.0404 308.813 59.4425 302.237 57.8849 300.159C57.7317 299.927 57.5466 299.716 57.3583 299.535C57.3294 299.11 57.2846 298.696 57.1952 298.422C56.9875 297.727 56.4163 297.244 55.9028 297.334C55.6604 297.383 55.4627 297.569 55.3608 297.831C53.9345 296.886 52.4733 296.409 51.443 296.341C51.6628 295.668 51.8761 294.778 51.6684 293.944C51.269 292.404 49.5493 291.709 49.5493 291.709C49.5493 291.709 48.6027 293.362 48.8586 294.858L48.8714 294.877Z" fill="#3CAADD"/>
<path d="M256.244 284.114C255.495 285.303 255.694 287.475 255.694 287.475C255.694 287.475 257.353 288.044 258.23 286.909C258.676 286.337 258.845 285.448 258.908 284.712C259.53 285.272 260.481 285.809 261.537 286.194C261.623 286.497 261.77 286.789 261.965 287.049C262.887 288.271 264.616 288.46 265.802 287.481C266.128 287.211 266.533 286.749 266.931 286.208C269.179 285.138 272.087 282.605 271.704 281.332C271.301 279.96 265.233 277.783 263.061 278.136C262.835 278.175 262.592 278.224 262.392 278.302C262.031 278.068 261.648 277.905 261.39 277.826C260.742 277.644 260.178 277.934 260.133 278.49C260.105 278.759 260.22 279.071 260.417 279.301C259.257 280.18 258.463 281.371 258.167 282.344C257.653 281.74 256.916 281.006 256.157 280.758C254.711 280.271 253.698 281.579 253.698 281.579C253.698 281.579 254.876 283.465 256.231 284.095L256.244 284.114Z" fill="#3CAADD"/>
<path d="M204.82 294.466C204.071 295.655 204.27 297.827 204.27 297.827C204.27 297.827 205.929 298.395 206.805 297.261C207.252 296.688 207.42 295.799 207.484 295.064C208.119 295.643 209.057 296.161 210.113 296.545C210.199 296.849 210.346 297.14 210.541 297.4C211.463 298.622 213.192 298.811 214.378 297.833C214.703 297.562 215.121 297.119 215.507 296.559C217.755 295.489 220.663 292.956 220.296 291.672C219.893 290.301 213.825 288.124 211.653 288.477C211.426 288.516 211.184 288.565 210.983 288.643C210.623 288.409 210.24 288.246 209.981 288.167C209.334 287.984 208.769 288.274 208.725 288.831C208.696 289.1 208.811 289.412 209.009 289.642C207.848 290.521 207.055 291.711 206.759 292.684C206.261 292.07 205.507 291.347 204.748 291.099C203.319 290.601 202.289 291.92 202.289 291.92C202.289 291.92 203.48 293.825 204.823 294.436L204.82 294.466Z" fill="#3CAADD"/>
<path d="M129.859 319.296C129.109 320.485 129.308 322.657 129.308 322.657C129.308 322.657 130.967 323.225 131.844 322.091C132.29 321.518 132.443 320.64 132.522 319.894C133.157 320.473 134.095 320.991 135.151 321.375C135.254 321.668 135.384 321.97 135.579 322.23C136.502 323.452 138.231 323.641 139.417 322.663C139.742 322.392 140.16 321.949 140.545 321.389C142.794 320.319 145.702 317.786 145.318 316.513C144.916 315.142 138.848 312.964 136.676 313.318C136.449 313.356 136.207 313.406 136.006 313.483C135.629 313.26 135.262 313.086 135.004 313.007C134.356 312.825 133.792 313.115 133.747 313.672C133.719 313.94 133.834 314.253 134.032 314.483C132.871 315.361 132.077 316.552 131.781 317.525C131.267 316.921 130.53 316.187 129.771 315.94C128.326 315.452 127.312 316.761 127.312 316.761C127.312 316.761 128.49 318.646 129.846 319.276L129.859 319.296Z" fill="#3CAADD"/>
<path d="M79.1432 324.932C78.3941 326.121 78.5929 328.293 78.5929 328.293C78.5929 328.293 80.2518 328.861 81.1285 327.727C81.5748 327.154 81.7435 326.266 81.8069 325.53C82.442 326.109 83.38 326.627 84.436 327.011C84.5382 327.304 84.6691 327.606 84.8638 327.866C85.7862 329.088 87.5152 329.277 88.7013 328.299C89.0266 328.028 89.4442 327.586 89.8299 327.025C92.0783 325.955 94.9862 323.422 94.6028 322.149C94.2003 320.778 88.1323 318.6 85.9602 318.954C85.7338 318.993 85.4914 319.042 85.2904 319.119C84.9139 318.896 84.547 318.723 84.2886 318.644C83.641 318.461 83.0765 318.751 83.0321 319.308C83.0036 319.576 83.1185 319.889 83.3164 320.119C82.1557 320.997 81.362 322.188 81.0658 323.161C80.552 322.557 79.8148 321.823 79.0555 321.576C77.6103 321.088 76.5966 322.397 76.5966 322.397C76.5966 322.397 77.7872 324.302 79.1304 324.912L79.1432 324.932Z" fill="#3CAADD"/>
<path d="M105.684 307.441C105.72 310.303 107.696 313.049 107.696 313.049C107.696 313.049 110.202 311.225 110.405 308.205C110.49 306.844 110.075 305.453 109.628 304.361C111.123 302.984 113.327 301.777 115.639 299.971C117.661 300.049 119.865 299.12 121.564 297.219C123.818 294.702 124.509 291.276 123.525 288.679C123.688 288.128 123.837 287.557 123.955 287.007C124 286.867 124.016 286.717 124.031 286.568C124.06 286.438 124.089 286.308 124.105 286.159C124.178 285.75 124.248 285.37 124.289 284.982C124.299 284.893 124.308 284.803 124.314 284.744C124.362 284.434 124.381 284.117 124.413 283.818C124.426 283.699 124.441 283.549 124.441 283.411C124.47 283.142 124.47 282.865 124.483 282.606C124.492 282.517 124.489 282.408 124.498 282.318C124.505 281.981 124.524 281.663 124.514 281.337C124.511 281.228 124.507 281.119 124.517 281.029C124.51 280.812 124.504 280.594 124.497 280.376C124.494 280.267 124.488 280.188 124.485 280.079C124.468 279.813 124.452 279.546 124.433 279.309C124.424 279.259 124.414 279.21 124.42 279.151C124.398 278.943 124.388 278.755 124.363 278.578C124.356 278.499 124.363 278.439 124.34 278.371C124.327 278.213 124.311 278.085 124.283 277.937C124.273 277.888 124.276 277.858 124.267 277.809C124.238 277.661 124.225 277.503 124.206 277.405C124.196 277.356 124.183 277.337 124.187 277.307C124.18 277.228 124.158 277.159 124.148 277.11C124.135 277.091 124.123 277.071 124.139 277.061C124.113 277.022 124.132 276.982 124.132 276.982C124.132 276.982 124.116 276.992 124.072 276.994C124.072 276.994 124.056 277.005 124.011 277.007C123.979 277.028 123.906 277.021 123.845 277.033C123.813 277.054 123.785 277.045 123.74 277.047C123.635 277.061 123.542 277.094 123.392 277.11C123.36 277.131 123.3 277.144 123.239 277.156C123.134 277.17 123.041 277.203 122.936 277.218C122.86 277.24 122.799 277.253 122.722 277.276C122.585 277.311 122.448 277.346 122.295 277.392C122.187 277.436 122.081 277.45 121.973 277.494C121.82 277.539 121.667 277.585 121.526 277.65C121.418 277.694 121.326 277.727 121.217 277.771C121.064 277.817 120.924 277.882 120.767 277.957C120.672 278.021 120.551 278.045 120.442 278.089C120.209 278.188 119.961 278.297 119.712 278.406C119.6 278.479 119.463 278.515 119.367 278.578C119.208 278.683 119.023 278.75 118.851 278.836C118.723 278.92 118.599 278.975 118.459 279.04C118.235 279.187 117.999 279.316 117.747 279.455C117.62 279.539 117.476 279.634 117.349 279.718C117.142 279.855 116.934 279.992 116.711 280.14C116.584 280.224 116.456 280.308 116.312 280.403C116.233 280.456 116.169 280.498 116.089 280.551C114.46 281.795 112.847 283.444 111.498 285.668C110.564 287.201 109.879 288.764 109.347 290.281C107.794 290.392 106.652 291.508 106.676 293.102C106.702 294.112 107.19 295.093 107.956 295.836C107.549 298.131 107.314 300.202 106.871 301.854C105.723 301.781 104.096 301.885 102.843 302.797C100.671 304.399 100.465 307.865 100.465 307.865C100.465 307.865 103.435 308.65 105.604 307.355L105.684 307.441Z" fill="#3CAADD"/>
</g>
<g style="mix-blend-mode:multiply" opacity="0.5">
<path d="M465.816 262.295C466.232 264.656 468.473 267.283 468.473 267.283C468.473 267.283 470.571 266.228 470.343 263.77C470.222 262.546 469.548 261.215 468.903 260.171C470.026 260.205 471.423 259.892 472.797 259.233C473.168 259.516 473.573 259.748 474.003 259.879C476.032 260.453 477.821 258.826 478.05 256.261C478.11 255.555 478.071 254.526 477.94 253.391C479.074 249.561 479.437 243.076 477.868 241.81C476.173 240.46 468.389 244.247 466.68 247.069C466.499 247.384 466.333 247.688 466.18 248.011C465.618 248.132 465.095 248.311 464.796 248.482C464.021 248.939 463.766 249.94 464.232 250.714C464.487 251.1 464.861 251.353 465.279 251.465C465.009 253.864 465.389 256.277 466.018 257.887C464.947 257.652 463.584 257.498 462.612 258.002C460.794 258.926 461.057 261.75 461.057 261.75C461.057 261.75 463.97 262.933 465.807 262.245L465.816 262.295Z" fill="#3CAADD"/>
<path d="M515.469 227.082C514.318 228.842 514.562 232.122 514.562 232.122C514.562 232.122 517.044 233.034 518.396 231.336C519.078 230.496 519.351 229.177 519.456 228.053C520.401 228.928 521.795 229.754 523.377 230.346C523.521 230.806 523.713 231.234 524.01 231.648C525.385 233.487 527.972 233.83 529.784 232.411C530.3 232.013 530.906 231.335 531.508 230.549C534.918 229.016 539.362 225.273 538.826 223.352C538.231 221.275 529.152 217.869 525.886 218.335C525.525 218.379 525.19 218.462 524.868 218.564C524.326 218.229 523.748 217.944 523.375 217.83C522.412 217.551 521.554 217.952 521.465 218.788C521.42 219.206 521.58 219.655 521.883 220.01C520.117 221.289 518.905 223.061 518.424 224.517C517.665 223.576 516.58 222.489 515.438 222.079C513.281 221.312 511.725 223.256 511.725 223.256C511.725 223.256 513.465 226.13 515.484 227.071L515.469 227.082Z" fill="#3CAADD"/>
<path d="M451.558 221.736C450.408 223.496 450.652 226.776 450.652 226.776C450.652 226.776 453.121 227.669 454.485 225.99C455.168 225.15 455.441 223.832 455.546 222.708C456.491 223.582 457.885 224.409 459.467 225C459.611 225.46 459.803 225.888 460.1 226.303C461.475 228.141 464.046 228.495 465.873 227.065C466.39 226.668 466.996 225.99 467.598 225.203C471.007 223.671 475.452 219.927 474.915 218.006C474.321 215.929 465.242 212.523 461.975 212.99C461.615 213.034 461.28 213.116 460.958 213.218C460.416 212.883 459.838 212.599 459.465 212.485C458.501 212.206 457.656 212.626 457.555 213.442C457.51 213.86 457.67 214.31 457.973 214.664C456.206 215.943 454.995 217.715 454.514 219.171C453.755 218.23 452.669 217.144 451.527 216.733C449.371 215.966 447.815 217.911 447.815 217.911C447.815 217.911 449.555 220.785 451.574 221.725L451.558 221.736Z" fill="#3CAADD"/>
<path d="M364.601 319.746C363.288 321.363 363.258 324.575 363.258 324.575C363.258 324.575 365.689 325.688 367.213 324.181C367.975 323.427 368.347 322.154 368.551 321.075C369.445 322.011 370.782 322.959 372.332 323.71C372.431 324.172 372.591 324.621 372.859 325.027C374.091 326.96 376.682 327.551 378.633 326.344C379.175 325.986 379.874 325.413 380.543 324.693C384.122 323.52 388.927 320.288 388.54 318.351C388.125 316.267 379.207 312.032 375.871 312.184C375.514 312.198 375.153 312.242 374.821 312.295C374.285 311.9 373.756 311.584 373.373 311.421C372.419 311.053 371.51 311.376 371.351 312.175C371.278 312.584 371.409 313.025 371.664 313.411C369.77 314.497 368.396 316.127 367.79 317.499C367.094 316.515 366.108 315.336 364.963 314.816C362.841 313.86 361.113 315.613 361.113 315.613C361.113 315.613 362.633 318.605 364.589 319.726L364.601 319.746Z" fill="#3CAADD"/>
<path d="M320.477 284.473C318.669 285.446 317.64 288.291 317.64 288.291C317.64 288.291 319.724 290.161 321.72 289.368C322.712 288.962 323.483 287.98 324.022 287.097C324.625 288.252 325.656 289.569 327.009 290.784C326.962 291.232 326.987 291.686 327.131 292.146C327.761 294.311 330.173 295.742 332.523 295.381C333.171 295.286 334.048 294.984 334.935 294.592C338.896 294.831 344.695 293.69 344.921 291.848C345.149 289.837 337.513 282.896 334.128 281.831C333.755 281.717 333.394 281.622 333.031 281.557C332.613 281.029 332.175 280.541 331.847 280.286C331.001 279.597 330.009 279.586 329.598 280.247C329.384 280.582 329.381 281.028 329.528 281.458C327.289 281.745 325.411 282.682 324.368 283.704C323.985 282.57 323.334 281.169 322.373 280.305C320.557 278.702 318.251 279.616 318.251 279.616C318.251 279.616 318.846 282.803 320.474 284.503L320.477 284.473Z" fill="#3CAADD"/>
<path d="M287.14 249.228C285.137 249.803 283.623 252.331 283.623 252.331C283.623 252.331 285.452 254.507 287.599 254.115C288.67 253.934 289.63 253.133 290.319 252.372C290.737 253.595 291.606 255.047 292.745 256.458C292.627 256.869 292.579 257.317 292.634 257.78C292.922 259.949 295.127 261.794 297.564 261.876C298.243 261.898 299.188 261.802 300.144 261.585C304.116 262.567 310.221 262.583 310.731 260.859C311.285 258.994 304.675 250.902 301.383 249.249C301.032 249.064 300.678 248.91 300.32 248.785C299.982 248.204 299.612 247.644 299.318 247.339C298.575 246.526 297.56 246.308 297.056 246.863C296.804 247.141 296.715 247.561 296.786 248.014C294.46 247.858 292.403 248.386 291.179 249.167C290.961 248.007 290.552 246.556 289.71 245.559C288.117 243.67 285.652 244.134 285.652 244.134C285.652 244.134 285.746 247.292 287.112 249.22L287.14 249.228Z" fill="#3CAADD"/>
<path d="M347.357 262.261C345.921 261.823 344.138 262.557 344.138 262.557C344.138 262.557 344.586 264.343 346.079 264.938C346.819 265.226 347.683 265.181 348.35 265.046C348.223 265.824 348.303 266.881 348.581 268.03C348.371 268.196 348.198 268.421 348.096 268.683C347.58 269.912 348.401 271.673 349.916 272.614C350.334 272.865 350.969 273.167 351.639 273.418C353.844 275.402 357.695 277.657 358.585 276.958C359.526 276.197 357.928 269.621 356.37 267.543C356.217 267.311 356.032 267.1 355.844 266.919C355.815 266.494 355.757 266.061 355.68 265.806C355.473 265.111 354.902 264.628 354.388 264.718C354.146 264.767 353.948 264.953 353.862 265.204C352.448 264.279 350.975 263.783 349.957 263.734C350.19 263.081 350.39 262.171 350.182 261.337C349.77 259.778 348.063 259.102 348.063 259.102C348.063 259.102 347.117 260.755 347.373 262.251L347.357 262.261Z" fill="#3CAADD"/>
<path d="M554.73 251.498C553.981 252.687 554.179 254.86 554.179 254.86C554.179 254.86 555.838 255.428 556.715 254.293C557.145 253.731 557.33 252.832 557.377 252.107C558.013 252.686 558.951 253.204 560.007 253.588C560.093 253.892 560.24 254.183 560.434 254.443C561.357 255.665 563.086 255.854 564.272 254.876C564.597 254.605 565.002 254.143 565.401 253.602C567.649 252.532 570.557 249.999 570.161 248.707C569.758 247.336 563.69 245.158 561.518 245.512C561.292 245.55 561.049 245.6 560.848 245.677C560.472 245.454 560.105 245.28 559.846 245.201C559.199 245.019 558.634 245.309 558.59 245.866C558.574 246.154 558.676 246.447 558.874 246.677C557.714 247.555 556.92 248.746 556.624 249.719C556.11 249.115 555.373 248.381 554.613 248.134C553.184 247.636 552.154 248.955 552.154 248.955C552.154 248.955 553.345 250.86 554.688 251.47L554.73 251.498Z" fill="#3CAADD"/>
<path d="M503.293 261.83C502.544 263.019 502.742 265.192 502.742 265.192C502.742 265.192 504.401 265.76 505.278 264.625C505.724 264.053 505.893 263.164 505.956 262.428C506.591 263.008 507.529 263.525 508.585 263.91C508.688 264.203 508.819 264.505 509.013 264.765C509.936 265.987 511.665 266.176 512.851 265.197C513.176 264.927 513.594 264.484 513.979 263.924C516.228 262.854 519.136 260.321 518.768 259.037C518.366 257.666 512.298 255.488 510.126 255.842C509.899 255.881 509.657 255.93 509.456 256.007C509.079 255.784 508.712 255.611 508.454 255.532C507.806 255.349 507.242 255.639 507.198 256.196C507.182 256.484 507.3 256.767 507.482 257.007C506.321 257.885 505.527 259.076 505.231 260.049C504.717 259.445 503.98 258.711 503.221 258.464C501.776 257.976 500.762 259.285 500.762 259.285C500.762 259.285 501.953 261.19 503.296 261.801L503.293 261.83Z" fill="#3CAADD"/>
<path d="M428.316 286.671C427.566 287.86 427.765 290.032 427.765 290.032C427.765 290.032 429.424 290.601 430.301 289.466C430.747 288.893 430.916 288.005 430.979 287.269C431.614 287.848 432.552 288.366 433.608 288.75C433.695 289.054 433.841 289.345 434.036 289.605C434.959 290.827 436.688 291.016 437.874 290.038C438.199 289.767 438.617 289.325 439.002 288.764C441.251 287.694 444.159 285.161 443.775 283.888C443.373 282.517 437.305 280.339 435.133 280.693C434.906 280.732 434.664 280.781 434.45 280.839C434.074 280.616 433.707 280.442 433.461 280.383C432.813 280.2 432.249 280.49 432.205 281.047C432.176 281.316 432.291 281.628 432.489 281.858C431.328 282.736 430.534 283.927 430.238 284.9C429.74 284.286 428.987 283.562 428.228 283.315C426.783 282.827 425.769 284.136 425.769 284.136C425.769 284.136 426.947 286.021 428.303 286.652L428.316 286.671Z" fill="#3CAADD"/>
<path d="M377.6 292.307C376.851 293.496 377.05 295.668 377.05 295.668C377.05 295.668 378.709 296.237 379.585 295.102C380.032 294.529 380.2 293.641 380.264 292.905C380.886 293.465 381.837 294.002 382.893 294.386C382.979 294.69 383.126 294.982 383.321 295.241C384.243 296.463 385.972 296.653 387.142 295.685C387.468 295.414 387.872 294.952 388.271 294.411C390.519 293.341 393.427 290.808 393.044 289.535C392.641 288.164 386.573 285.986 384.401 286.34C384.175 286.378 383.932 286.428 383.731 286.505C383.371 286.272 382.988 286.108 382.742 286.049C382.095 285.866 381.53 286.156 381.486 286.713C381.47 287.001 381.572 287.294 381.77 287.524C380.61 288.402 379.816 289.593 379.52 290.566C379.006 289.962 378.269 289.228 377.509 288.981C376.064 288.493 375.05 289.802 375.05 289.802C375.05 289.802 376.241 291.707 377.571 292.298L377.6 292.307Z" fill="#3CAADD"/>
<path d="M404.17 274.825C404.206 277.687 406.182 280.433 406.182 280.433C406.182 280.433 408.688 278.609 408.891 275.589C408.992 274.217 408.561 272.837 408.098 271.756C409.593 270.379 411.797 269.172 414.109 267.366C416.131 267.444 418.335 266.514 420.034 264.614C422.288 262.097 422.979 258.671 421.995 256.074C422.158 255.522 422.307 254.951 422.425 254.402C422.47 254.261 422.485 254.112 422.501 253.963C422.53 253.833 422.559 253.703 422.575 253.554C422.66 253.164 422.718 252.765 422.759 252.377C422.769 252.287 422.762 252.208 422.8 252.128C422.848 251.819 422.867 251.501 422.899 251.202C422.912 251.083 422.927 250.933 422.927 250.795C422.956 250.526 422.956 250.249 422.968 249.99C422.978 249.901 422.975 249.792 422.984 249.702C422.99 249.365 422.997 249.028 423 248.721C422.997 248.612 422.993 248.503 423.003 248.413C422.996 248.196 422.99 247.978 422.983 247.76C422.98 247.651 422.99 247.562 422.97 247.463C422.954 247.197 422.938 246.93 422.919 246.693C422.909 246.643 422.9 246.594 422.906 246.535C422.884 246.327 422.874 246.139 422.865 245.952C422.858 245.873 422.849 245.823 422.842 245.744C422.829 245.586 422.8 245.439 422.784 245.311C422.759 245.272 422.765 245.212 422.768 245.182C422.756 245.024 422.727 244.877 422.708 244.779C422.682 244.74 422.698 244.729 422.689 244.68C422.682 244.601 422.66 244.533 422.65 244.484C422.637 244.464 422.625 244.445 422.641 244.434C422.615 244.396 422.618 244.366 422.618 244.366C422.618 244.366 422.602 244.376 422.558 244.378C422.558 244.378 422.542 244.389 422.51 244.41C422.478 244.431 422.405 244.424 422.344 244.436C422.328 244.447 422.296 244.468 422.239 244.45C422.133 244.464 422.041 244.498 421.891 244.514C421.859 244.535 421.786 244.528 421.738 244.559C421.633 244.573 421.54 244.607 421.419 244.631C421.342 244.654 421.282 244.667 421.189 244.7C421.052 244.735 420.915 244.77 420.762 244.816C420.654 244.86 420.548 244.874 420.44 244.918C420.287 244.964 420.146 245.029 419.993 245.074C419.885 245.118 419.792 245.152 419.684 245.196C419.531 245.241 419.391 245.306 419.234 245.382C419.126 245.426 419.017 245.47 418.909 245.514C418.676 245.612 418.427 245.721 418.163 245.841C418.051 245.914 417.927 245.969 417.818 246.013C417.659 246.118 417.474 246.185 417.302 246.271C417.174 246.355 417.05 246.41 416.909 246.475C416.686 246.622 416.45 246.751 416.198 246.89C416.071 246.974 415.927 247.069 415.8 247.153C415.592 247.29 415.385 247.427 415.162 247.575C415.034 247.659 414.907 247.743 414.763 247.838C414.684 247.891 414.62 247.933 414.54 247.986C412.911 249.23 411.297 250.879 409.949 253.103C408.999 254.646 408.33 256.199 407.798 257.716C406.245 257.827 405.103 258.943 405.126 260.537C405.152 261.547 405.641 262.528 406.407 263.271C406 265.566 405.764 267.637 405.322 269.289C404.173 269.216 402.563 269.309 401.322 270.241C399.151 271.843 398.945 275.309 398.945 275.309C398.945 275.309 401.915 276.093 404.083 274.798L404.17 274.825Z" fill="#3CAADD"/>
</g>
</svg>
