<svg width="508" height="271" viewBox="0 0 508 271" fill="none" xmlns="http://www.w3.org/2000/svg">
<g style="mix-blend-mode:multiply" opacity="0.5">
<path d="M146.486 85.4853C145.531 87.6847 145.951 91.1111 145.951 91.1111C145.951 91.1111 148.283 91.389 149.449 89.2127C150.022 88.1246 150.194 86.6428 150.232 85.4158C151.15 86.0872 152.488 86.5734 153.998 86.7818C154.151 87.2216 154.361 87.6384 154.648 87.9856C156.024 89.56 158.413 89.2127 160.019 87.1985C160.458 86.6428 160.993 85.7631 161.509 84.7444C164.568 82.1514 168.448 76.9423 167.836 75.0438C167.167 72.9833 158.585 71.8489 155.603 73.2843C155.278 73.4464 154.973 73.6084 154.667 73.7936C154.151 73.5853 153.596 73.4464 153.252 73.4232C152.354 73.3769 151.59 74.0715 151.551 74.9744C151.551 75.4374 151.723 75.8541 152.01 76.1783C150.462 78.0304 149.449 80.253 149.086 81.943C148.321 81.1559 147.27 80.2761 146.18 80.1604C144.154 79.9288 142.816 82.4292 142.816 82.4292C142.816 82.4292 144.594 85.0222 146.505 85.4621L146.486 85.4853Z" fill="#3CAADD"/>
<path d="M207.325 83.4942C205.394 84.3277 203.789 87.1985 203.789 87.1985C203.789 87.1985 205.356 89.3053 207.42 88.657C208.452 88.3329 209.408 87.3837 210.115 86.5039C210.421 87.7541 211.128 89.2127 212.122 90.5786C211.988 91.0417 211.912 91.5047 211.931 91.9909C212.046 94.2829 214.014 95.9961 216.327 95.8109C216.958 95.7646 217.856 95.5563 218.793 95.209C222.482 95.8109 228.254 95.1395 228.866 93.2411C229.515 91.1806 223.82 83.3322 220.838 81.9199C220.513 81.7578 220.188 81.6421 219.863 81.5263C219.595 80.9475 219.271 80.3919 219.022 80.0909C218.372 79.3269 217.436 79.2111 216.9 79.8362C216.633 80.1604 216.518 80.6234 216.576 81.0864C214.397 81.179 212.409 81.9893 211.205 82.9386C211.09 81.7347 210.784 80.2298 210.058 79.2574C208.682 77.4285 206.312 78.1925 206.312 78.1925C206.312 78.1925 206.178 81.5495 207.344 83.4479L207.325 83.4942Z" fill="#3CAADD"/>
<path d="M156.941 43.789C155.011 44.6225 153.405 47.4933 153.405 47.4933C153.405 47.4933 154.973 49.6001 157.037 48.9518C158.069 48.6277 159.025 47.6785 159.732 46.7987C160.038 48.0489 160.745 49.5075 161.739 50.8734C161.605 51.3365 161.529 51.7995 161.548 52.3088C161.662 54.6009 163.631 56.3141 165.944 56.1289C166.594 56.0826 167.473 55.8742 168.409 55.5269C172.098 56.1289 177.871 55.4575 178.482 53.559C179.132 51.4985 173.436 43.6501 170.435 42.2379C170.111 42.0758 169.786 41.96 169.461 41.8443C169.193 41.2655 168.868 40.7098 168.62 40.4089C167.97 39.6217 167.033 39.5059 166.498 40.1542C166.23 40.4783 166.116 40.9414 166.173 41.4044C163.994 41.497 162.006 42.3073 160.802 43.2565C160.688 42.0526 160.382 40.5478 159.655 39.5754C158.279 37.7464 155.909 38.5104 155.909 38.5104C155.909 38.5104 155.775 41.8674 156.941 43.7659V43.789Z" fill="#3CAADD"/>
<path d="M30.3714 77.5905C28.3836 78.2156 26.5869 80.9012 26.5869 80.9012C26.5869 80.9012 28.0013 83.1701 30.1038 82.7534C31.1551 82.545 32.1681 81.6884 32.9326 80.9012C33.162 82.1746 33.7545 83.7026 34.6337 85.1843C34.4617 85.6242 34.347 86.0872 34.347 86.5734C34.3088 88.8654 36.1437 90.787 38.4373 90.8565C39.0681 90.8565 39.9664 90.7638 40.9412 90.5323C44.5728 91.5279 50.3642 91.4816 51.1096 89.6526C51.9124 87.6847 46.8091 79.2343 43.942 77.5211C43.6362 77.3358 43.3113 77.1738 43.0055 77.0349C42.7761 76.4098 42.5085 75.8541 42.2791 75.53C41.6866 74.6966 40.7501 74.465 40.1767 75.0438C39.8899 75.3448 39.7562 75.7847 39.7562 76.2477C37.5772 76.1088 35.5321 76.7107 34.2706 77.5211C34.2323 76.3172 34.0603 74.766 33.3913 73.7242C32.1681 71.7563 29.7407 72.2656 29.7407 72.2656C29.7407 72.2656 29.3584 75.5995 30.3714 77.6137V77.5905Z" fill="#3CAADD"/>
<path d="M13.0165 23.8322C10.9714 23.6239 8.54395 25.4529 8.54395 25.4529C8.54395 25.4529 9.27026 28.1616 11.3536 28.6015C12.4049 28.8098 13.5899 28.4163 14.5265 27.9764C14.3927 29.2729 14.5265 30.9398 14.9852 32.6993C14.6985 33.0466 14.4691 33.4402 14.3354 33.9032C13.6664 36.0563 14.8896 38.5799 17.0495 39.5754C17.642 39.8532 18.5212 40.0847 19.496 40.2468C22.6689 42.6314 28.1353 44.8771 29.3395 43.4417C30.6392 41.8906 28.0971 31.889 25.8417 29.134C25.5932 28.833 25.3448 28.5552 25.0772 28.3005C25.0389 27.6291 24.9243 26.9809 24.8096 26.5873C24.4846 25.5686 23.6628 24.9898 22.9556 25.3139C22.6115 25.476 22.3439 25.8464 22.2293 26.2863C20.2032 25.2908 18.1198 25.0361 16.6863 25.3139C16.9921 24.1564 17.2215 22.6283 16.8966 21.3781C16.2658 19.0398 13.8384 18.5536 13.8384 18.5536C13.8384 18.5536 12.5769 21.5402 12.9974 23.8554L13.0165 23.8322Z" fill="#3CAADD"/>
<path d="M47.6692 20.1048C46.7135 18.9241 44.8212 18.5768 44.8212 18.5768C44.8212 18.5768 44.2096 20.3363 45.1271 21.6328C45.5858 22.3042 46.3312 22.7209 46.962 22.9756C46.4268 23.5544 45.9107 24.4805 45.5093 25.5918C45.2417 25.6149 44.9933 25.7075 44.7448 25.8696C43.6362 26.6104 43.3495 28.532 44.0949 30.1526C44.3052 30.6157 44.6683 31.1945 45.0888 31.7733C45.8343 34.6441 47.803 38.6493 48.9307 38.5567C50.1348 38.441 52.4284 32.0742 52.2755 29.4812C52.2755 29.2034 52.2373 28.9256 52.18 28.6709C52.3902 28.3005 52.5813 27.9301 52.6578 27.6523C52.868 26.9577 52.6578 26.24 52.18 26.0316C51.9506 25.939 51.683 25.9853 51.4536 26.1474C50.7847 24.5731 49.829 23.3692 49.0071 22.7441C49.5614 22.3042 50.2304 21.6791 50.5171 20.8688C51.0331 19.3639 49.9819 17.8359 49.9819 17.8359C49.9819 17.8359 48.2808 18.6925 47.6692 20.0816V20.1048Z" fill="#3CAADD"/>
<path d="M226.591 125.491C225.31 126.07 224.278 127.992 224.278 127.992C224.278 127.992 225.349 129.381 226.706 128.918C227.394 128.686 228.025 128.038 228.483 127.459C228.694 128.27 229.191 129.242 229.859 130.145C229.764 130.446 229.726 130.77 229.745 131.094C229.84 132.622 231.178 133.733 232.707 133.571C233.128 133.525 233.72 133.363 234.351 133.131C236.817 133.479 240.64 132.969 241.022 131.696C241.442 130.33 237.581 125.167 235.574 124.264C235.364 124.172 235.135 124.079 234.925 124.033C234.753 123.639 234.523 123.292 234.351 123.084C233.912 122.574 233.281 122.505 232.937 122.945C232.765 123.153 232.688 123.477 232.727 123.778C231.274 123.871 229.955 124.426 229.171 125.075C229.076 124.288 228.866 123.269 228.369 122.644C227.432 121.44 225.865 121.972 225.865 121.972C225.865 121.972 225.807 124.195 226.591 125.468V125.491Z" fill="#3CAADD"/>
<path d="M177.986 105.766C176.705 106.345 175.673 108.267 175.673 108.267C175.673 108.267 176.743 109.656 178.1 109.193C178.788 108.961 179.419 108.313 179.878 107.734C180.088 108.568 180.585 109.517 181.254 110.42C181.158 110.721 181.12 111.045 181.139 111.369C181.235 112.897 182.573 114.008 184.102 113.846C184.522 113.8 185.115 113.661 185.746 113.406C188.211 113.754 192.034 113.244 192.435 111.971C192.856 110.605 188.995 105.442 186.988 104.539C186.778 104.447 186.548 104.354 186.338 104.308C186.166 103.914 185.937 103.567 185.765 103.358C185.325 102.849 184.694 102.78 184.35 103.219C184.178 103.428 184.102 103.752 184.14 104.053C182.688 104.146 181.369 104.701 180.585 105.349C180.509 104.562 180.279 103.544 179.782 102.918C178.865 101.715 177.278 102.247 177.278 102.247C177.278 102.247 177.221 104.493 178.005 105.743L177.986 105.766Z" fill="#3CAADD"/>
<path d="M101.76 85.138C100.48 85.7168 99.4478 87.6384 99.4478 87.6384C99.4478 87.6384 100.518 89.0275 101.875 88.5644C102.563 88.3329 103.175 87.6847 103.653 87.1059C103.863 87.9393 104.36 88.8886 105.029 89.7915C104.952 90.0925 104.895 90.4166 104.914 90.7407C105.01 92.2687 106.348 93.38 107.877 93.2179C108.297 93.1716 108.89 93.0327 109.521 92.7781C111.986 93.1253 115.809 92.616 116.191 91.3426C116.612 89.9767 112.751 84.8139 110.744 83.9109C110.534 83.8183 110.304 83.7257 110.094 83.6794C109.903 83.2858 109.693 82.9386 109.521 82.7302C109.081 82.2209 108.45 82.1514 108.106 82.5913C107.934 82.7997 107.858 83.1238 107.896 83.4248C106.443 83.5174 105.124 84.073 104.341 84.7213C104.245 83.9341 104.035 82.9154 103.538 82.2903C102.601 81.0864 101.034 81.6189 101.034 81.6189C101.034 81.6189 100.977 83.8415 101.76 85.1148V85.138Z" fill="#3CAADD"/>
<path d="M56.3469 61.8705C55.0663 62.4493 54.0342 64.3709 54.0342 64.3709C54.0342 64.3709 55.1045 65.76 56.4616 65.297C57.1497 65.0654 57.7804 64.4172 58.2392 63.8384C58.4494 64.6719 58.9464 65.6211 59.6153 66.524C59.5389 66.825 59.4815 67.1491 59.5007 67.4732C59.5962 69.0012 60.9342 70.1125 62.4633 69.9505C62.8838 69.9042 63.4763 69.7652 64.107 69.5106C66.5727 69.8578 70.3954 69.3485 70.7776 68.0752C71.1981 66.7092 67.3372 61.5464 65.3303 60.6435C65.12 60.5509 64.8907 60.4582 64.6804 60.4119C64.4893 60.0184 64.279 59.6711 64.107 59.4627C63.6674 58.9534 63.0367 58.8839 62.6926 59.3238C62.5206 59.5322 62.4441 59.8563 62.4824 60.1573C61.0297 60.2499 59.7109 60.8055 58.9272 61.4538C58.8317 60.6666 58.6214 59.6479 58.1245 59.0228C57.1879 57.819 55.6206 58.3514 55.6206 58.3514C55.6206 58.3514 55.5633 60.5972 56.3469 61.8474V61.8705Z" fill="#3CAADD"/>
<path d="M88.1327 61.9168C86.5845 64.3246 86.7183 67.7047 86.7183 67.7047C86.7183 67.7047 89.8147 67.5658 91.6496 65.158C92.4714 64.0699 92.8919 62.6808 93.1213 61.5232C95.1282 61.1991 97.6321 61.4075 100.556 61.176C102.2 62.3567 104.551 62.7966 107.017 62.1483C110.285 61.2917 112.751 58.8145 113.363 56.1057C113.802 55.7353 114.242 55.3417 114.643 54.9481C114.758 54.8555 114.853 54.7398 114.949 54.624C115.045 54.5314 115.14 54.4388 115.236 54.323C115.522 54.0221 115.79 53.7442 116.038 53.4433C116.096 53.3738 116.153 53.3044 116.191 53.2581C116.402 53.0265 116.593 52.7719 116.784 52.5404C116.86 52.4478 116.956 52.332 117.032 52.2162C117.204 52.0079 117.357 51.7764 117.51 51.568C117.568 51.4985 117.625 51.4059 117.682 51.3365C117.873 51.0587 118.064 50.804 118.237 50.5262C118.294 50.4335 118.351 50.3409 118.409 50.2715C118.523 50.0863 118.638 49.9011 118.753 49.7158C118.81 49.6232 118.848 49.5538 118.905 49.4612C119.039 49.2297 119.173 48.9981 119.288 48.7898C119.307 48.7435 119.326 48.6972 119.364 48.6509C119.46 48.4657 119.555 48.3036 119.632 48.1415C119.67 48.0721 119.708 48.0258 119.727 47.9563C119.804 47.8174 119.861 47.7016 119.919 47.5627C119.938 47.5164 119.957 47.4933 119.976 47.447C120.033 47.3081 120.11 47.1692 120.148 47.0766C120.167 47.0303 120.167 47.0071 120.186 46.9839C120.224 46.9145 120.243 46.845 120.263 46.7987C120.263 46.7756 120.263 46.7524 120.282 46.7524C120.282 46.7061 120.32 46.683 120.32 46.683C120.32 46.683 120.301 46.683 120.263 46.6598C120.263 46.6598 120.243 46.6598 120.205 46.6367C120.167 46.6367 120.11 46.5904 120.052 46.5672C120.014 46.5672 119.995 46.5441 119.957 46.5209C119.861 46.4746 119.766 46.4515 119.632 46.382C119.594 46.382 119.536 46.3589 119.479 46.3357C119.383 46.2894 119.288 46.2662 119.192 46.2199C119.116 46.1968 119.058 46.1736 118.982 46.1505C118.848 46.1042 118.714 46.0579 118.561 46.0116C118.447 45.9884 118.351 45.9421 118.237 45.919C118.084 45.8727 117.931 45.8264 117.778 45.8032C117.663 45.7801 117.568 45.7569 117.453 45.7338C117.3 45.6874 117.147 45.6643 116.975 45.6412C116.86 45.6412 116.746 45.5948 116.631 45.5717C116.382 45.5254 116.115 45.4791 115.847 45.4328C115.714 45.4328 115.58 45.3865 115.465 45.3865C115.274 45.3865 115.083 45.3402 114.892 45.317C114.739 45.317 114.605 45.2939 114.452 45.2707C114.184 45.2707 113.917 45.2476 113.63 45.2244C113.477 45.2244 113.305 45.2244 113.152 45.2244C112.904 45.2244 112.655 45.2244 112.388 45.2244C112.235 45.2244 112.082 45.2244 111.91 45.2244C111.814 45.2244 111.738 45.2244 111.642 45.2244C109.597 45.3633 107.342 45.8495 104.991 46.9608C103.366 47.7248 101.933 48.6509 100.652 49.6232C99.295 48.8592 97.7277 49.1602 96.8676 50.503C96.3324 51.3596 96.1986 52.4478 96.4279 53.4896C94.8224 55.1797 93.4845 56.7771 92.2039 57.9116C91.2864 57.217 89.872 56.4067 88.3238 56.4761C85.6288 56.6151 83.5454 59.3933 83.5454 59.3933C83.5454 59.3933 85.5906 61.6853 88.1135 61.801L88.1327 61.9168Z" fill="#3CAADD"/>
</g>
<g style="mix-blend-mode:multiply" opacity="0.5">
<path d="M413.445 222.868C412.49 225.067 412.91 228.493 412.91 228.493C412.91 228.493 415.242 228.771 416.408 226.595C416.981 225.507 417.153 224.025 417.191 222.798C418.109 223.446 419.447 223.956 420.957 224.164C421.11 224.604 421.32 225.021 421.607 225.368C422.983 226.965 425.372 226.595 426.978 224.581C427.417 224.025 427.952 223.145 428.468 222.127C431.527 219.557 435.407 214.348 434.795 212.426C434.126 210.366 425.544 209.231 422.562 210.643C422.237 210.806 421.932 210.968 421.626 211.153C421.091 210.944 420.555 210.806 420.211 210.782C419.313 210.736 418.549 211.431 418.51 212.334C418.51 212.797 418.682 213.213 418.969 213.537C417.421 215.39 416.408 217.612 416.045 219.302C415.28 218.515 414.229 217.635 413.139 217.52C411.113 217.288 409.775 219.788 409.775 219.788C409.775 219.788 411.553 222.381 413.464 222.821L413.445 222.868Z" fill="#3CAADD"/>
<path d="M474.284 220.877C472.353 221.71 470.748 224.581 470.748 224.581C470.748 224.581 472.315 226.711 474.379 226.039C475.411 225.715 476.367 224.766 477.074 223.886C477.38 225.136 478.087 226.595 479.081 227.961C478.947 228.424 478.871 228.887 478.89 229.396C479.024 231.688 480.992 233.402 483.286 233.216C483.936 233.17 484.815 232.939 485.752 232.614C489.441 233.216 495.213 232.545 495.825 230.647C496.474 228.586 490.779 220.738 487.797 219.325C487.472 219.163 487.147 219.048 486.822 218.955C486.554 218.376 486.23 217.821 485.981 217.52C485.331 216.756 484.395 216.617 483.859 217.265C483.592 217.589 483.477 218.052 483.535 218.515C481.356 218.608 479.368 219.418 478.164 220.367C478.049 219.163 477.743 217.658 477.017 216.686C475.641 214.857 473.271 215.621 473.271 215.621C473.271 215.621 473.137 218.978 474.303 220.877H474.284Z" fill="#3CAADD"/>
<path d="M423.919 181.171C421.989 182.005 420.383 184.876 420.383 184.876C420.383 184.876 421.951 186.982 424.015 186.334C425.047 186.01 426.003 185.061 426.71 184.181C427.016 185.431 427.723 186.89 428.717 188.256C428.583 188.719 428.507 189.182 428.526 189.691C428.659 191.983 430.609 193.696 432.922 193.511C433.572 193.465 434.451 193.233 435.387 192.909C439.076 193.511 444.849 192.84 445.46 190.941C446.11 188.881 440.414 181.032 437.433 179.62C437.108 179.458 436.783 179.342 436.458 179.25C436.19 178.671 435.865 178.115 435.617 177.814C434.967 177.05 434.03 176.935 433.495 177.56C433.228 177.884 433.113 178.347 433.17 178.81C430.991 178.902 429.004 179.713 427.799 180.662C427.685 179.458 427.379 177.953 426.653 176.981C425.276 175.152 422.906 175.916 422.906 175.916C422.906 175.916 422.772 179.273 423.938 181.171H423.919Z" fill="#3CAADD"/>
<path d="M297.33 214.973C295.343 215.598 293.546 218.26 293.546 218.26C293.546 218.26 294.96 220.529 297.063 220.112C298.114 219.904 299.127 219.048 299.892 218.26C300.121 219.534 300.713 221.062 301.593 222.543C301.421 222.983 301.306 223.446 301.306 223.933C301.268 226.225 303.103 228.146 305.396 228.216C306.046 228.216 306.944 228.123 307.9 227.891C311.532 228.887 317.323 228.841 318.069 227.012C318.871 225.044 313.768 216.593 310.901 214.88C310.595 214.695 310.27 214.533 309.964 214.394C309.735 213.769 309.467 213.213 309.238 212.866C308.646 212.033 307.709 211.801 307.136 212.38C306.849 212.681 306.715 213.121 306.715 213.584C304.536 213.445 302.491 214.047 301.23 214.857C301.191 213.653 301.019 212.125 300.35 211.06C299.108 209.092 296.7 209.602 296.7 209.602C296.7 209.602 296.317 212.935 297.33 214.95V214.973Z" fill="#3CAADD"/>
<path d="M279.975 161.215C277.93 161.029 275.503 162.835 275.503 162.835C275.503 162.835 276.21 165.544 278.313 165.984C279.364 166.192 280.549 165.799 281.485 165.359C281.352 166.655 281.485 168.322 281.944 170.082C281.657 170.429 281.428 170.822 281.294 171.286C280.625 173.439 281.849 175.962 284.008 176.958C284.601 177.236 285.499 177.467 286.455 177.629C289.628 180.014 295.094 182.259 296.298 180.847C297.598 179.296 295.056 169.294 292.82 166.539C292.571 166.238 292.323 165.961 292.055 165.706C291.998 165.035 291.902 164.386 291.769 163.993C291.444 162.951 290.622 162.395 289.915 162.719C289.551 162.881 289.303 163.252 289.188 163.692C287.162 162.696 285.079 162.442 283.645 162.719C283.951 161.562 284.18 160.034 283.856 158.784C283.225 156.445 280.797 155.936 280.797 155.936C280.797 155.936 279.536 158.923 279.956 161.238L279.975 161.215Z" fill="#3CAADD"/>
<path d="M271.604 113.429C269.616 112.804 266.959 114.078 266.959 114.078C266.959 114.078 267.284 116.902 269.291 117.759C270.285 118.199 271.527 118.06 272.521 117.805C272.196 119.055 272.12 120.745 272.292 122.551C271.967 122.829 271.68 123.176 271.47 123.593C270.514 125.561 271.336 128.316 273.324 129.728C273.878 130.122 274.719 130.562 275.637 130.909C278.408 133.919 283.492 137.299 284.868 136.141C286.359 134.891 285.308 124.496 283.473 121.301C283.282 120.954 283.072 120.63 282.842 120.329C282.881 119.657 282.881 118.986 282.804 118.569C282.632 117.481 281.906 116.74 281.179 116.925C280.816 117.018 280.511 117.319 280.319 117.736C278.465 116.323 276.458 115.629 275.006 115.606C275.465 114.518 275.923 113.082 275.77 111.786C275.484 109.332 273.171 108.359 273.171 108.359C273.171 108.359 271.508 111.045 271.584 113.406L271.604 113.429Z" fill="#3CAADD"/>
<path d="M314.647 157.51C313.692 156.353 311.799 155.982 311.799 155.982C311.799 155.982 311.188 157.719 312.105 159.038C312.564 159.687 313.309 160.126 313.94 160.381C313.405 160.96 312.889 161.886 312.487 162.997C312.22 163.02 311.952 163.113 311.723 163.275C310.614 164.016 310.328 165.937 311.073 167.558C311.283 167.998 311.646 168.6 312.067 169.179C312.812 172.05 314.781 176.055 315.909 175.962C317.113 175.846 319.406 169.48 319.254 166.887C319.254 166.609 319.215 166.331 319.158 166.076C319.368 165.706 319.559 165.312 319.636 165.058C319.846 164.363 319.636 163.645 319.158 163.437C318.929 163.344 318.661 163.391 318.451 163.553C317.782 162.002 316.826 160.775 316.004 160.173C316.559 159.756 317.228 159.108 317.514 158.297C318.03 156.769 316.979 155.265 316.979 155.265C316.979 155.265 315.278 156.121 314.666 157.51H314.647Z" fill="#3CAADD"/>
<path d="M493.569 262.897C492.289 263.476 491.256 265.397 491.256 265.397C491.256 265.397 492.327 266.786 493.684 266.323C494.353 266.092 495.003 265.444 495.442 264.865C495.652 265.698 496.149 266.647 496.818 267.55C496.723 267.851 496.685 268.175 496.704 268.5C496.799 270.028 498.137 271.139 499.666 270.977C500.087 270.931 500.679 270.768 501.31 270.537C503.776 270.884 507.598 270.375 507.981 269.078C508.401 267.712 504.54 262.55 502.533 261.647C502.323 261.554 502.094 261.461 501.883 261.415C501.692 261.022 501.482 260.674 501.31 260.466C500.87 259.957 500.24 259.887 499.896 260.327C499.724 260.559 499.647 260.86 499.685 261.161C498.233 261.253 496.914 261.809 496.13 262.457C496.035 261.67 495.824 260.651 495.328 260.026C494.41 258.822 492.824 259.355 492.824 259.355C492.824 259.355 492.766 261.6 493.55 262.851L493.569 262.897Z" fill="#3CAADD"/>
<path d="M444.964 243.148C443.683 243.727 442.651 245.649 442.651 245.649C442.651 245.649 443.721 247.038 445.078 246.575C445.766 246.343 446.397 245.695 446.856 245.116C447.066 245.95 447.563 246.899 448.232 247.802C448.156 248.103 448.098 248.427 448.117 248.751C448.213 250.279 449.551 251.39 451.08 251.228C451.5 251.182 452.093 251.043 452.724 250.789C455.189 251.136 459.012 250.626 459.413 249.353C459.834 247.987 455.973 242.824 453.966 241.921C453.756 241.829 453.526 241.736 453.316 241.69C453.125 241.296 452.915 240.949 452.743 240.741C452.303 240.231 451.672 240.162 451.328 240.602C451.156 240.833 451.099 241.134 451.118 241.435C449.666 241.528 448.347 242.083 447.563 242.732C447.468 241.945 447.257 240.926 446.76 240.301C445.824 239.097 444.256 239.629 444.256 239.629C444.256 239.629 444.199 241.875 444.983 243.125L444.964 243.148Z" fill="#3CAADD"/>
<path d="M368.719 222.52C367.439 223.099 366.407 225.021 366.407 225.021C366.407 225.021 367.477 226.41 368.834 225.947C369.522 225.715 370.153 225.067 370.612 224.488C370.822 225.322 371.319 226.271 371.988 227.174C371.892 227.475 371.854 227.799 371.873 228.123C371.969 229.651 373.307 230.762 374.836 230.6C375.256 230.554 375.849 230.415 376.48 230.16C378.945 230.508 382.768 229.998 383.15 228.725C383.571 227.359 379.71 222.196 377.703 221.293C377.493 221.201 377.263 221.108 377.053 221.039C376.862 220.645 376.652 220.298 376.48 220.113C376.04 219.603 375.409 219.534 375.065 219.974C374.893 220.182 374.817 220.506 374.855 220.807C373.402 220.9 372.083 221.455 371.3 222.104C371.223 221.316 370.994 220.298 370.497 219.673C369.56 218.469 367.993 219.001 367.993 219.001C367.993 219.001 367.936 221.224 368.719 222.497V222.52Z" fill="#3CAADD"/>
<path d="M323.306 199.253C322.025 199.832 320.993 201.753 320.993 201.753C320.993 201.753 322.064 203.142 323.421 202.679C324.109 202.448 324.739 201.8 325.198 201.221C325.408 202.031 325.905 203.003 326.574 203.906C326.479 204.207 326.441 204.531 326.46 204.856C326.555 206.384 327.893 207.495 329.403 207.333C329.824 207.286 330.416 207.124 331.047 206.893C333.513 207.24 337.335 206.731 337.718 205.457C338.138 204.092 334.277 198.929 332.27 198.026C332.06 197.933 331.831 197.841 331.62 197.794C331.448 197.401 331.219 197.053 331.047 196.868C330.607 196.359 329.977 196.289 329.632 196.729C329.46 196.961 329.384 197.262 329.422 197.563C327.97 197.655 326.651 198.211 325.867 198.859C325.772 198.072 325.561 197.053 325.064 196.428C324.128 195.224 322.56 195.757 322.56 195.757C322.56 195.757 322.503 198.003 323.287 199.23L323.306 199.253Z" fill="#3CAADD"/>
<path d="M355.111 199.322C353.563 201.73 353.696 205.11 353.696 205.11C353.696 205.11 356.793 204.971 358.628 202.563C359.469 201.475 359.87 200.086 360.08 198.929C362.087 198.605 364.591 198.813 367.516 198.581C369.159 199.762 371.51 200.202 373.976 199.554C377.244 198.697 379.71 196.22 380.322 193.511C380.761 193.141 381.201 192.747 381.602 192.354C381.717 192.261 381.812 192.145 381.908 192.029C382.004 191.937 382.099 191.844 382.195 191.728C382.481 191.451 382.749 191.15 382.998 190.849C383.055 190.779 383.093 190.71 383.17 190.664C383.38 190.432 383.571 190.177 383.762 189.946C383.839 189.853 383.934 189.737 384.011 189.622C384.183 189.413 384.335 189.182 384.488 188.973C384.546 188.904 384.603 188.811 384.66 188.742C384.852 188.464 385.043 188.186 385.215 187.932C385.272 187.839 385.329 187.746 385.387 187.677C385.501 187.492 385.616 187.307 385.731 187.121C385.788 187.029 385.845 186.959 385.884 186.867C386.017 186.635 386.151 186.404 386.266 186.195C386.285 186.149 386.304 186.103 386.342 186.056C386.438 185.871 386.534 185.709 386.629 185.547C386.667 185.478 386.686 185.431 386.725 185.362C386.801 185.223 386.858 185.084 386.916 184.968C386.916 184.922 386.954 184.876 386.973 184.852C387.05 184.714 387.107 184.575 387.145 184.482C387.145 184.436 387.164 184.436 387.183 184.389C387.222 184.32 387.241 184.25 387.26 184.204C387.26 184.181 387.26 184.158 387.279 184.158C387.279 184.112 387.298 184.088 387.298 184.088C387.298 184.088 387.279 184.088 387.241 184.065C387.241 184.065 387.222 184.065 387.183 184.065C387.145 184.065 387.088 184.019 387.03 183.996C387.011 183.996 386.973 183.996 386.935 183.95C386.839 183.903 386.744 183.88 386.61 183.811C386.572 183.811 386.514 183.764 386.457 183.764C386.362 183.718 386.266 183.695 386.151 183.649C386.075 183.625 386.017 183.602 385.922 183.579C385.788 183.533 385.654 183.486 385.501 183.44C385.387 183.417 385.291 183.371 385.176 183.348C385.024 183.301 384.871 183.278 384.718 183.232C384.603 183.209 384.507 183.186 384.393 183.162C384.24 183.116 384.087 183.093 383.915 183.07C383.8 183.047 383.686 183.023 383.571 183C383.322 182.954 383.055 182.908 382.768 182.861C382.634 182.861 382.501 182.838 382.386 182.815C382.195 182.815 382.004 182.769 381.812 182.746C381.66 182.746 381.526 182.722 381.373 182.699C381.105 182.699 380.838 182.676 380.551 182.653C380.398 182.653 380.226 182.653 380.073 182.653C379.825 182.653 379.576 182.653 379.309 182.653C379.156 182.653 379.003 182.653 378.831 182.653C378.735 182.653 378.659 182.653 378.563 182.653C376.518 182.792 374.263 183.278 371.912 184.389C370.268 185.153 368.853 186.079 367.573 187.052C366.216 186.288 364.649 186.589 363.788 187.932C363.253 188.788 363.119 189.876 363.349 190.918C361.743 192.608 360.405 194.206 359.125 195.34C358.207 194.646 356.812 193.835 355.264 193.928C352.569 194.067 350.485 196.845 350.485 196.845C350.485 196.845 352.531 199.137 355.053 199.253L355.111 199.322Z" fill="#3CAADD"/>
</g>
</svg>
