<svg width="35" height="80" viewBox="0 0 35 80" fill="none" xmlns="http://www.w3.org/2000/svg">
<g clip-path="url(#clip0_81_630)">
<path d="M21.6462 1.80938C21.2123 1.51988 21.2364 1.08562 21.7185 0.86849L23.3335 0.0964753C23.7915 -0.120654 24.1531 0.0964753 24.1049 0.627235L23.9843 2.41252C23.9361 2.91915 23.5746 3.11216 23.1407 2.82265L21.6703 1.80938H21.6462Z" fill="#FF542E"/>
<path d="M24.7796 4.58382C24.6832 4.07718 24.9966 3.78768 25.4787 3.95656L27.166 4.53557C27.6481 4.70445 27.7445 5.11458 27.3588 5.45234L26.0331 6.63448C25.6474 6.97224 25.2376 6.85161 25.1412 6.34498L24.8037 4.58382H24.7796Z" fill="#FF542E"/>
<path d="M25.4546 9.89143C25.4546 9.3848 25.8162 9.16767 26.2741 9.40892L27.8168 10.3016C28.2748 10.5669 28.2748 10.9771 27.8168 11.2425L26.2741 12.1351C25.8162 12.4005 25.4546 12.1833 25.4546 11.6526V9.86731V9.89143Z" fill="#FF542E"/>
<path d="M25.4546 14.9336C25.4546 14.427 25.8162 14.2098 26.2741 14.4511L27.8168 15.3437C28.2748 15.6091 28.2748 16.0193 27.8168 16.2846L26.2741 17.1773C25.8162 17.4427 25.4546 17.2255 25.4546 16.6948V14.9095V14.9336Z" fill="#FF542E"/>
<path d="M25.4546 21.0856C25.4546 20.579 25.8162 20.3619 26.2741 20.6031L27.8168 21.4958C28.2748 21.7612 28.2748 22.1713 27.8168 22.4367L26.2741 23.3293C25.8162 23.5947 25.4546 23.3776 25.4546 22.8468V21.0615V21.0856Z" fill="#FF542E"/>
<path d="M25.792 27.2376C25.792 26.7309 26.1536 26.5138 26.6116 26.7792L28.1543 27.6718C28.6122 27.9372 28.6122 28.3474 28.1543 28.6127L26.6116 29.5054C26.1536 29.7708 25.792 29.5536 25.792 29.0229V27.2376Z" fill="#FF542E"/>
<path d="M25.5266 33.1483C25.5025 32.6417 25.84 32.4004 26.3221 32.6176L27.913 33.4137C28.371 33.655 28.3951 34.0651 27.9612 34.3546L26.4667 35.3437C26.0328 35.6333 25.6471 35.4403 25.623 34.9336L25.5266 33.1483Z" fill="#FF542E"/>
<path d="M26.467 38.5524C26.4188 38.0458 26.7562 37.8046 27.2383 38.0217L28.8533 38.7696C29.3354 38.9867 29.3595 39.421 28.9498 39.7105L27.4794 40.7479C27.0455 41.0374 26.6598 40.8685 26.6116 40.3619L26.4429 38.5766L26.467 38.5524Z" fill="#FF542E"/>
<path d="M27.0454 50.6876C27.0454 50.1809 27.407 49.9638 27.865 50.2051L29.1425 50.9288C29.6005 51.1942 29.6005 51.6043 29.1425 51.8697L27.8891 52.6176C27.4311 52.883 27.0695 52.6659 27.0695 52.1592V50.6876H27.0454Z" fill="#FF542E"/>
<path d="M26.8286 44.5355C26.8286 44.0289 27.1902 43.8118 27.6482 44.053L28.9257 44.7768C29.3837 45.0422 29.3837 45.4523 28.9257 45.7177L27.6723 46.4656C27.2143 46.731 26.8527 46.5138 26.8527 46.0072V44.5355H26.8286Z" fill="#FF542E"/>
<path d="M27.2144 56.4535C27.2144 55.9469 27.6001 55.7298 28.0339 56.0193L29.2874 56.7913C29.7213 57.0567 29.7213 57.4909 29.2633 57.7322L27.9616 58.4318C27.5036 58.6731 27.1421 58.4318 27.1662 57.9252L27.2144 56.4535Z" fill="#FF542E"/>
<path d="M26.3704 62.2437C26.4427 61.737 26.8284 61.5681 27.2382 61.8818L28.4193 62.7744C28.8291 63.0881 28.7809 63.4982 28.2988 63.7153L26.9489 64.2943C26.4668 64.4873 26.1293 64.2461 26.2017 63.7394L26.3704 62.2919V62.2437Z" fill="#FF542E"/>
<path d="M24.6833 67.31C24.9003 66.8275 25.31 66.8034 25.6234 67.2135L26.2983 68.1544C26.5876 68.5886 26.4189 68.9747 25.9127 69.0229L24.7556 69.1435C24.2494 69.1918 23.9843 68.854 24.2012 68.3715L24.6833 67.31Z" fill="#FF542E"/>
<path d="M22.755 71.4837C23.0925 71.1218 23.4782 71.2183 23.6228 71.6767L23.9843 72.8588C24.129 73.3413 23.8638 73.6308 23.3817 73.5102L22.1765 73.2207C21.6944 73.1001 21.5739 72.7141 21.9113 72.3522L22.755 71.4596V71.4837Z" fill="#FF542E"/>
<path d="M18.7295 74.9095C19.091 74.5717 19.4767 74.7165 19.5731 75.199L19.8142 76.4053C19.9106 76.8878 19.5972 77.1531 19.1393 77.0084L17.9822 76.6224C17.5242 76.4776 17.4278 76.0675 17.8135 75.7539L18.7295 74.9336V74.9095Z" fill="#FF542E"/>
<path d="M14.5593 77.322C15.0172 77.129 15.3306 77.3462 15.2824 77.8528L15.186 78.8178C15.1378 79.3003 14.7762 79.4692 14.3664 79.1797L13.571 78.6248C13.1612 78.3353 13.2094 77.9252 13.6674 77.7322L14.5593 77.322Z" fill="#FF542E"/>
<path d="M11.1122 78.0217C11.5943 78.0217 11.8112 78.3353 11.5943 78.7696L11.1604 79.6381C10.9434 80.0723 10.5337 80.0965 10.2685 79.6863L9.7382 78.8661C9.47305 78.4559 9.64178 78.094 10.148 78.0699L11.1122 78.0217Z" fill="#FF542E"/>
<path d="M7.11086 77.8769C7.59296 77.9252 7.76169 78.3112 7.47243 78.6972L6.89392 79.4692C6.60467 79.8552 6.19489 79.807 6.00205 79.3727L5.61637 78.4801C5.42354 78.0217 5.66458 77.708 6.14668 77.7563L7.11086 77.8769Z" fill="#FF542E"/>
<path d="M33.2646 53.1725C33.0959 54.4994 31.8424 55.4403 30.4685 55.2714L25.3342 54.1616C23.9602 53.9928 22.9478 52.7865 23.1165 51.4596L24.6592 38.6248C24.828 37.3221 26.0814 36.3571 27.4554 36.5259L32.7584 36.1882C34.1324 36.357 35.1448 37.5633 34.976 38.8902L33.2646 53.1484V53.1725Z" fill="#FF8D2E"/>
<path d="M33.5536 38.1182L31.6975 53.5826C31.6975 53.5826 31.6493 53.7997 31.6011 53.8962C31.4083 54.234 31.0226 54.4752 30.6128 54.4511L23.4296 53.0518H23.3573C22.8029 52.9795 22.3931 52.4728 22.4414 51.9421L24.1046 38.0458C24.1769 37.515 24.6831 37.1049 25.2616 37.1773H25.4062L32.7582 37.0325C33.0715 37.1049 33.3367 37.322 33.4572 37.5874C33.5295 37.7322 33.5777 37.901 33.5536 38.0699C33.5536 38.0699 33.5536 38.1182 33.5536 38.1423V38.1182Z" fill="#FFB638"/>
<path d="M22.8272 48.8058L20.3926 47.5512L20.3203 48.0579L22.7549 49.3124L31.6013 53.8721C31.6013 53.8721 31.6977 53.6791 31.6977 53.5585V53.3896L22.8031 48.7816L22.8272 48.8058ZM33.4574 37.5874L23.8878 39.9035L21.2122 40.5548L21.1399 41.0615L23.8155 40.4101L33.5538 38.0458C33.5538 37.8769 33.5297 37.708 33.4574 37.5633V37.5874Z" fill="#FF902E"/>
<path d="M23.0683 46.7551L20.5855 45.9348L20.5132 46.4414L22.996 47.2617L32.0834 50.2533L32.1557 49.7466L23.0683 46.7551ZM23.6468 41.9782L21.0435 42.1712L20.9712 42.6779L23.5745 42.4849L33.1199 41.737L33.1922 41.2303L23.6468 41.9782Z" fill="#FF902E"/>
<path d="M23.2608 45.1869L20.7299 44.7044L20.6816 45.2111L23.2126 45.6936L32.4688 47.4547L32.5411 46.9481L23.2849 45.2111L23.2608 45.1869ZM23.4537 43.5705L20.8745 43.4258L20.8022 43.9324L23.3814 44.0772L32.7822 44.5597L32.8304 44.0772L23.4296 43.5947L23.4537 43.5705Z" fill="#FF902E"/>
<path d="M27.9131 52.9312C27.5756 38.9626 25.8401 46.4173 25.8401 8.68512C25.9124 2.26775 21.4048 -0.675554 15.5233 1.13385C8.02672 3.47402 10.5818 8.99875 4.36281 12.8106C3.54325 13.3172 0.939944 15.1507 0.939944 15.1507L1.49435 16.8154C1.49435 16.8154 6.33939 15.2231 10.5818 14.7647C11.8594 15.5126 13.7877 16.6465 18.3435 16.2605C18.9461 16.9843 18.681 18.4801 18.4882 19.6381C17.8373 22.895 15.7884 22.5573 11.6906 27.0446C3.39862 36.0916 4.96543 49.4089 14.0047 57.7322C14.5109 58.2147 14.993 58.6972 15.4028 59.2038C20.0067 64.7285 14.4627 71.6284 11.9558 73.4861C6.77328 77.3462 1.90413 70.4704 4.24229 67.7442C5.44752 66.3449 6.79738 66.1519 7.9062 67.31C8.60523 68.0579 8.87038 69.2159 8.87038 69.2159C9.35248 67.4065 9.37658 66.5138 7.88209 65.2593C6.00193 63.667 3.18168 63.9083 1.59077 65.7901C-0.385814 68.1544 0.289117 72.0868 1.2051 73.8962C2.00055 75.4885 4.12176 77.9252 6.84559 78.4318C20.7299 80.9408 28.1782 66.3691 27.8649 52.9071L27.9131 52.9312Z" fill="#FF8D2E"/>
<path d="M17.0179 7.91313C17.0179 6.85161 16.1501 5.98309 15.0895 5.98309C14.0289 5.98309 13.1611 6.85161 13.1611 7.91313C13.1611 8.97465 14.0289 9.84317 15.0895 9.84317C16.1501 9.84317 17.0179 8.97465 17.0179 7.91313Z" fill="white"/>
<path d="M16.2224 7.91313C16.2224 7.28587 15.7162 6.77924 15.0895 6.77924C14.4627 6.77924 13.9565 7.28587 13.9565 7.91313C13.9565 8.54039 14.4627 9.04703 15.0895 9.04703C15.7162 9.04703 16.2224 8.54039 16.2224 7.91313Z" fill="#454545"/>
<path d="M25.6715 15.5609C25.334 16.3571 24.3939 16.6948 23.5744 16.3571L20.6095 14.7406C19.79 14.3788 19.3802 13.462 19.7176 12.6659L22.9959 5.01809C23.3333 4.22195 24.2734 3.88419 25.093 4.22195L28.4194 4.96984C29.239 5.33172 29.6488 6.24849 29.3113 7.04463L25.6715 15.5609Z" fill="#FF8D2E"/>
<path d="M28.5643 6.32088L24.6352 15.5368C24.6352 15.5368 24.5629 15.6574 24.5147 15.7057C24.346 15.8987 24.0567 15.9711 23.8157 15.8746L19.6214 13.7274H19.5732C19.2358 13.5585 19.067 13.1725 19.2117 12.8589L22.7551 4.55972C22.8997 4.24609 23.2854 4.10134 23.6228 4.24609H23.6951L28.275 5.50061C28.4438 5.59712 28.5643 5.76599 28.6125 5.959C28.6125 6.0555 28.6125 6.17613 28.6125 6.27263C28.6125 6.27263 28.6125 6.29675 28.6125 6.32088H28.5643Z" fill="#FFB638"/>
<path d="M20.007 11.0012L18.7294 9.79494L18.6089 10.1086L19.8864 11.3148L24.5386 15.7298C24.5386 15.7298 24.6351 15.6092 24.6592 15.5609L24.7074 15.4644L20.0311 11.0012H20.007ZM28.6123 5.95899L22.2728 5.66948L20.5132 5.59711L20.3926 5.91074L22.1523 5.98311L28.6123 6.27262C28.6123 6.27262 28.6605 6.05549 28.6123 5.95899Z" fill="#FF902E"/>
<path d="M20.5132 9.7708L19.1152 8.80578L18.9946 9.09529L20.3927 10.0603L25.4788 13.5585L25.5993 13.269L20.5132 9.7708ZM21.7426 6.924L20.0793 6.58624L19.9588 6.87575L21.622 7.2135L27.6482 8.49215L27.7687 8.20265L21.7426 6.94812V6.924Z" fill="#FF902E"/>
<path d="M20.9229 8.8299L19.4526 8.08201L19.332 8.37152L20.8024 9.11941L26.2019 11.8697L26.3224 11.5802L20.9229 8.8299ZM21.3327 7.86488L19.7659 7.31L19.6454 7.5995L21.2122 8.15439L26.925 10.1568L27.0455 9.8673L21.3327 7.86488Z" fill="#FF902E"/>
<path d="M12.0524 41.5199C12.0524 41.7129 12.0524 41.8818 12.0524 42.0748C12.0524 44.0531 12.1488 46.2002 12.4381 48.3956C12.4381 48.5886 12.4863 48.7575 12.5104 48.9505C12.7997 51.0253 13.2818 53.1483 13.9567 55.2714C14.0049 55.4644 14.0772 55.6333 14.1254 55.8263C14.5111 56.9602 14.945 58.1182 15.4512 59.2521C15.0414 58.7454 14.5593 58.2388 14.0531 57.7804C13.3782 57.1532 12.7515 56.5018 12.1488 55.8504C11.9801 55.6574 11.8355 55.4885 11.6668 55.2955C10.0517 53.3414 8.77419 51.2183 7.88232 48.9746C7.81 48.7816 7.73769 48.6128 7.66537 48.4198C6.89402 46.3691 6.46014 44.2219 6.31551 42.0989C6.31551 41.9059 6.31551 41.737 6.29141 41.544C6.21909 39.421 6.48424 37.2738 7.08686 35.2231C7.13507 35.0301 7.18328 34.8371 7.25559 34.6682C7.97874 32.4487 9.08755 30.3015 10.6302 28.3474C10.7749 28.1544 10.9195 27.9855 11.0882 27.7925C11.2811 27.5512 11.498 27.3341 11.6909 27.0929C15.7887 22.6055 17.8376 22.9433 18.4884 19.6863C18.4161 20.9167 17.9822 23.4258 15.7163 27.7684C15.6199 27.9372 15.5235 28.1302 15.4271 28.3233C15.0896 28.9505 14.7039 29.626 14.2942 30.3257C13.7639 31.2183 13.2336 32.7141 12.7997 34.6441C12.7515 34.8371 12.7274 35.006 12.6791 35.199C12.3176 37.0084 12.0765 39.1556 12.0042 41.5199H12.0524Z" fill="white"/>
<path d="M15.7165 27.7684C15.62 27.9372 15.5236 28.1303 15.4272 28.3233H10.6304C10.775 28.1303 10.9196 27.9614 11.0884 27.7684H15.7165Z" fill="#E3E3E3"/>
<path d="M12.8238 34.6441C12.7756 34.8371 12.7515 35.006 12.7033 35.199H7.08691C7.13512 35.006 7.18333 34.813 7.25565 34.6441H12.8238Z" fill="#E3E3E3"/>
<path d="M12.0523 41.5199C12.0523 41.7129 12.0523 41.8818 12.0523 42.0748H6.33953C6.33953 41.8818 6.33953 41.7129 6.31543 41.5199H12.0764H12.0523Z" fill="#E3E3E3"/>
<path d="M12.4865 48.9505H7.88247C7.81016 48.7575 7.73784 48.5886 7.66553 48.3956H12.4141C12.4141 48.5886 12.4624 48.7575 12.4865 48.9505Z" fill="#E3E3E3"/>
<path d="M14.1013 55.8262H12.1247C11.9559 55.6332 11.8113 55.4644 11.6426 55.2714H13.9084C13.9566 55.4644 14.0289 55.6332 14.0772 55.8262H14.1013Z" fill="#E3E3E3"/>
<path d="M2.74781 15.1025C2.6996 15.5609 2.31393 15.8986 1.90415 15.8504L0.650703 15.7056C0.240923 15.6574 -0.0483332 15.2473 -0.00012389 14.7647C0.0721902 14.3064 0.43376 13.9686 0.867645 14.0169L2.12109 14.1616C2.53087 14.2099 2.82012 14.6441 2.77191 15.1025H2.74781Z" fill="#FF8D2E"/>
<path d="M3.32615 15.585C3.51899 15.9952 3.37436 16.5018 2.98869 16.7189L1.85577 17.3703C1.4942 17.5875 1.03621 17.4186 0.843372 17.0084C0.650535 16.5983 0.819268 16.0917 1.18084 15.8745L2.31376 15.2232C2.67533 15.006 3.13332 15.1749 3.32615 15.585Z" fill="#FF8D2E"/>
</g>
<defs>
<clipPath id="clip0_81_630">
<rect width="35" height="80" fill="white"/>
</clipPath>
</defs>
</svg>
