<svg xmlns="http://www.w3.org/2000/svg" viewBox="0 0 234.09 330.44"><defs><style>.cls-1{fill:#e44d26;}.cls-2{fill:#f16529;}.cls-3{fill:#fff;}.cls-4{fill:#ebebeb;}</style></defs><g id="Layer_2" data-name="Layer 2"><g id="shields"><polygon points="32.66 0 45.83 0 45.83 13 57.87 13 57.87 0 71.03 0 71.03 39.38 57.87 39.38 57.87 26.19 45.83 26.19 45.83 39.38 32.66 39.38 32.66 0 32.66 0"/><polygon points="88.34 13.06 76.75 13.06 76.75 0 113.09 0 113.09 13.06 101.5 13.06 101.5 39.38 88.34 39.38 88.34 13.06 88.34 13.06"/><polygon points="118.86 0 132.59 0 141.03 13.84 149.46 0 163.19 0 163.19 39.38 150.09 39.38 150.09 19.86 141.03 33.86 140.8 33.86 131.74 19.86 131.74 39.38 118.86 39.38 118.86 0 118.86 0"/><polygon points="169.74 0 182.91 0 182.91 26.36 201.42 26.36 201.42 39.38 169.74 39.38 169.74 0 169.74 0"/><polygon class="cls-1" points="116.9 330.44 21.3 303.9 0 64.95 234.09 64.95 212.76 303.86 116.9 330.44"/><polygon class="cls-2" points="194.5 288.65 212.73 84.49 117.04 84.49 117.04 310.12 194.5 288.65"/><polygon class="cls-3" points="117.13 143.1 187.82 143.1 190.44 113.79 117.13 113.79 117.03 113.79 43.65 113.79 51.55 202.42 117.03 202.42 117.13 202.42 153.12 202.42 149.71 240.42 117.03 249.24 117.03 249.25 117 249.25 84.37 240.44 82.28 217.07 52.86 217.07 56.97 263.08 117 279.75 117.13 279.71 117.13 279.7 177.11 263.08 185.15 173.11 117.13 173.11 117.03 173.11 78.35 173.11 75.68 143.1 117.03 143.1 117.13 143.1"/><polygon class="cls-4" points="117.04 249.24 117.03 249.24 117.03 249.25 117 249.25 84.37 240.44 82.28 217.07 52.86 217.07 56.97 263.08 117 279.75 117.04 279.73 117.04 249.24"/><polygon class="cls-4" points="117.04 202.42 117.04 173.11 117.03 173.11 78.35 173.11 75.68 143.1 117.03 143.1 117.04 143.1 117.04 113.79 117.03 113.79 43.65 113.79 51.55 202.42 117.03 202.42 117.04 202.42"/></g></g></svg>