<svg xmlns="http://www.w3.org/2000/svg" viewBox="0 0 234.09 328.19"><defs><style>.cls-1{fill:#dab92d;}.cls-2{fill:#ffd83a;}.cls-3{fill:#fff;}</style></defs><g id="Layer_2" data-name="Layer 2"><g id="shields"><polygon class="cls-1" points="116.31 328.19 20.77 301.44 0 62.45 234.09 62.96 212.23 301.82 116.31 328.19"/><polygon class="cls-2" points="194.01 286.57 212.69 82.45 117 82.24 116.5 307.87 194.01 286.57"/><polygon class="cls-3" points="122.21 111.56 122.02 200.18 151.32 200.25 151.66 200.25 148.18 238.24 121.92 245.27 121.85 275.71 175.52 260.96 183.76 171.01 151.39 170.94 151.45 140.93 186.4 141 186.49 141 189.18 111.71 122.21 111.56"/><polygon class="cls-3" points="81.98 111.47 86.12 239.77 77.11 237.62 75.25 214.73 51.38 214.67 55.38 260.7 109 275.71 109.36 111.53 81.98 111.47"/><polygon points="155.8 0.13 118.19 0.04 118.17 11.07 136.52 30.29 118.12 30.25 118.1 41.27 155.71 41.36 155.73 30.33 138.18 11.12 155.78 11.16 155.8 0.13"/><polygon points="97.79 28.74 92.28 28.73 92.29 26 78.51 25.97 78.5 28.7 78.48 38.35 78.47 41.19 111.54 41.26 111.63 0.03 97.85 0 97.79 28.74"/></g></g></svg>