<svg width="1920" height="468" viewBox="0 0 1920 468" fill="none" xmlns="http://www.w3.org/2000/svg">
<g clip-path="url(#clip0_2_2006)">
<path d="M110.808 176.919C116.517 174.084 112.625 173.628 112.342 168.005C111.846 158.153 115.597 162.478 124.892 162.743C123.996 173.531 137.985 160.532 141.784 161.662C144.733 162.527 146.242 165.41 146.95 168.029C148.177 172.666 144.096 176.271 146.785 180.932C148.908 184.608 155.136 184.272 156.481 188.405C157.731 192.249 153.461 198.953 154.594 203.687C155.443 207.195 158.604 209.502 159.288 212.505C160.256 216.686 157.566 221.083 158.864 225.288C160.114 229.253 164.242 230.694 163.912 235.044C163.299 243.598 149.993 248.451 159.336 256.837C163.228 260.321 171.273 259.264 174.481 263.421C177.524 267.361 173.962 271.807 174.882 276.228C176.133 282.307 180.52 282.379 183.8 286.896C185.64 289.443 183.493 292.255 185.593 295.09C187.15 297.204 191.797 298.382 193.708 300.52C196.421 303.596 194.015 308.594 200.29 307.32C204.819 306.407 202.46 304.701 204.206 302.755C205.527 301.265 204.442 299.103 206.589 297.421C208.051 296.291 212.086 296.628 213.879 296.58C214.185 296.58 216.592 293.648 218.267 293.456C221.381 293.096 222.537 296.051 224.849 297.204C230.935 300.232 238.956 304.004 245.798 301.385C244.476 296.676 249.383 291.75 254.385 294.489C259.693 297.421 253.653 304.028 258.018 308.137C259.693 309.723 263.656 308.882 265.85 309.627C267.737 310.276 267.478 313.135 269.766 313.52C271.583 313.808 278.896 311.477 280.43 310.516C284.912 307.705 282.411 306.095 287.814 305.518C289.725 305.326 292.815 306.263 294.325 306.071C299.68 305.47 306.333 299.247 311.877 301.842C314.802 303.211 319.261 315.994 315.699 317.028C317.94 316.379 321.644 316.523 323.554 315.802C324.876 317.196 324.144 318.806 325.159 319.983C326.692 320.103 329.287 319.695 330.655 320.488C332.779 324.765 335.444 327.624 337.355 332.358C337.355 332.358 337.355 332.31 337.355 332.286C345.329 303.812 362.433 351.676 375.007 331.445C378.64 337.572 384.868 335.121 389.728 331.108C395.39 346.438 408.412 331.445 413.484 338.509C419.618 347.039 392.535 361.456 418.297 362.585C419.005 360.399 421.128 358.572 421.505 355.737C423.11 356.29 426.507 356.314 428.465 356.794C430.305 357.251 431.178 342.954 437.901 343.963C444.79 344.996 440.166 356.626 446.536 360.302C449.461 361.984 453.66 361.264 456.586 362.729C460.219 364.555 461.327 369.481 466.187 367.847C471.189 366.165 467.225 363.186 470.269 360.254C472.109 358.476 476.874 356.65 479.493 358.092C482.937 359.99 480.554 360.591 482.064 362.129C484.872 365.012 490.132 373.662 495.629 373.374C495.629 382.384 506.67 379.189 512.827 380.054C519.291 380.967 524.057 382.192 529.978 386.301C532.998 382.577 536.584 368.184 527.878 372.461C524.977 367.871 518.89 367.847 523.302 362.897C529.837 355.569 529.671 366.646 536.867 363.474C536.914 363.907 536.985 364.339 537.079 364.772C541.774 363.907 542.977 357.299 548.167 355.473C564.516 349.658 562.581 369.721 576.288 371.74C579.944 372.268 583.766 370.274 588.083 370.899C588.909 366.454 583.294 362.297 584.309 359.461C586.149 354.319 593.344 357.755 595.066 358.933C596.623 359.99 597.685 362.946 599.431 364.171C606.013 368.832 613.468 369.553 621.064 367.391C625.759 366.069 634.346 358.669 638.144 364.483C641.093 368.977 635.809 369.529 637.035 373.71C637.885 376.642 643.24 377.435 645.222 380.366C647.25 383.369 649.444 391.899 650.223 395.528C651.214 400.213 655.177 399.324 648.359 402.688C644.891 404.394 641.447 401.511 640.079 405.836C637.531 413.957 653.644 414.414 658.126 414.774C666.1 415.399 672.281 411.146 666.336 403.024C669.096 399.612 675.701 397.402 679.971 398.075C677.023 404.082 685.681 407.326 690.068 404.466C695.612 400.862 690.399 397.066 699.34 397.594C703.704 397.858 702.289 400.718 707.149 398.627C715.193 395.167 711.655 385.316 717.128 381.856C722.271 378.612 728.805 386.493 734.514 385.196C741.804 383.538 747.466 376.185 745.956 368.28C743.456 367.511 740.247 367.943 737.77 368.568C738.525 363.642 731.471 362.994 731.801 358.909C732.179 354.44 751.807 349.201 753.057 354.007C756.832 353.31 758.861 348.384 762.682 348C765.136 347.76 772.402 351.316 774.384 352.926C776.413 354.56 777.804 358.332 780.683 360.495C782.428 361.816 784.858 362.369 786.769 363.186C786.463 369.914 778.772 373.157 782.334 379.453C785.212 384.547 794.224 386.109 795.993 379.717C801.915 381.087 803.991 376.017 808.025 380.654C811.186 384.307 807.931 387.695 815.385 390.578C828.691 395.744 826.568 377.675 839.189 384.739C838.293 385.82 838.009 388.199 837.302 389.136C837.986 389.785 838.646 389.16 839.401 389.521C839.024 390.386 838.882 392.26 838.788 393.293C841.171 394.014 843.53 395.215 845.535 396.777C845.299 396.585 847.54 392.957 847.8 392.572C848.767 391.058 865.918 399.829 866.956 400.838C872.618 406.412 873.561 415.327 884.06 409.969C885.357 409.296 885.121 405.812 887.009 404.706C891.043 402.376 921.735 404.682 920.862 407.542C920.272 409.512 920.508 413.309 919.753 415.183C920.036 414.462 924.637 412.876 925.533 412.083C927.68 410.233 928.482 405.74 930.063 404.49C934.12 401.246 937.47 403 941.316 406.148C945.822 409.824 954.338 425.491 954.928 409.849C954.999 407.662 950.044 399.54 955.352 399.204C957.947 399.036 960.094 406.1 961.51 407.614C965.19 398.555 958.82 389.136 971.536 384.667C974.084 390.602 962.359 404.13 970.121 407.926C976.561 411.098 975.735 404.37 979.062 401.823C987.743 395.167 980.855 406.869 983.898 411.386C989.088 419.051 993.004 408.527 991.117 403.073C996.472 402.88 993.735 408.239 995.953 409.128C997.557 409.752 1012.66 402.424 1013.03 404.034C1011.81 398.579 1013.13 391.347 1011.29 386.157C1010.41 383.706 1006.95 380.702 1005.63 377.963C1002.06 370.611 998.548 360.639 999.303 352.277C999.987 344.564 1003.6 326.975 1012.23 324.669C1016.97 323.395 1019.21 327.095 1018.51 332.55C1017.73 338.485 1011.92 343.194 1010.77 349.466C1008.93 359.63 1014.64 381.231 1024.52 363.979C1027.8 358.26 1024.38 340.335 1032.14 341.272C1041.55 342.425 1039.03 354.92 1036.95 360.687C1031.81 375.152 1019.95 380.294 1022.66 397.498C1025.21 413.621 1034.38 396.705 1042.66 395.72C1041.77 405.499 1045.59 413.717 1056.35 408.887C1052.62 399.18 1056.21 388.896 1068.4 390.53C1061.56 419.556 1089.42 386.349 1092.72 386.83C1101.9 388.151 1103.69 405.307 1118.09 403.241C1117.64 403.313 1130.94 406.509 1133.11 406.677C1139.48 407.133 1146.96 405.475 1153.76 405.788C1157.15 405.956 1160.62 407.734 1163.97 406.172C1166.09 405.163 1167.51 403.073 1169.3 401.511C1171.09 399.949 1173.9 398.988 1175.69 400.55C1174.35 405.427 1173.03 410.641 1174.56 415.447C1176.1 420.253 1181.78 424.001 1186.12 421.574C1188.65 420.157 1189.94 417.081 1190.04 414.126C1190.13 411.17 1189.21 408.311 1188.25 405.523C1187.7 403.962 1187.23 402.039 1188.34 400.838C1189.78 399.276 1192.49 400.598 1193.53 402.448C1194.59 404.298 1194.85 406.605 1196.2 408.263C1199.19 405.812 1200.49 401.799 1203.11 398.94C1205.73 396.08 1211.25 395.119 1212.83 398.675C1213.68 400.574 1213.37 403.529 1215.35 404.082C1215.94 404.25 1216.58 404.082 1217.17 403.938C1220.75 403.097 1224.34 402.159 1227.93 401.27C1230.54 400.622 1233.19 399.949 1235.85 400.67C1245.03 403.145 1253.81 411.05 1263.45 411.579C1271.48 412.011 1279.21 402.664 1272.18 395.023C1266.85 389.232 1262.13 395.023 1257.49 389.064C1253.88 384.427 1255.17 374.311 1262.02 373.23C1268.69 372.172 1268.83 379.789 1272.91 381.904C1286.31 388.824 1271.29 366.886 1282.73 367.367C1282.99 367.367 1292.02 372.653 1292.31 372.965C1296.44 377.531 1294.26 376.329 1291.39 381.591C1289.05 385.844 1285.68 395.071 1295.18 392.38C1297.47 391.731 1298.39 388.295 1300.49 387.43C1305.97 385.172 1302.12 387.43 1305.97 388.367C1310.17 389.425 1310.64 392.692 1316.16 388.848C1320.24 386.013 1322.53 382.264 1317.76 378.516C1319.01 376.93 1321.49 374.936 1323.64 374.215C1325.5 376.041 1327.74 377.651 1329.84 378.636C1331.82 374.095 1332.81 369.721 1330.43 364.844C1329.35 364.94 1327.95 364.483 1326.89 364.603C1327.29 360.399 1333.8 354.584 1337.25 358.5C1334.65 353.454 1340.86 347.327 1346.31 350.042C1344.96 352.998 1347.16 354.44 1347.18 356.266C1347.18 357.443 1346.14 361.336 1346.35 362.417C1347.23 366.67 1347.01 370.707 1353.86 369.073C1348.78 355.377 1369.03 356.506 1362.94 365.589C1362.94 365.589 1377.71 362.513 1379.19 362.153C1385.37 360.567 1390.87 360.014 1396.86 357.179C1404.11 353.719 1403.35 347.063 1411.87 351.316C1418.26 354.488 1418.14 360.999 1416.59 367.607C1426.56 366.309 1432.13 373.614 1441.83 369.433C1444.07 368.472 1439.37 360.759 1446.36 358.452C1452.96 356.266 1458.15 360.206 1458.77 366.021C1459.05 368.592 1470.16 361.744 1470.94 361.648C1475.42 361.023 1479.86 364.171 1484.34 364.243C1483.35 359.197 1488.54 362.441 1491.54 360.471C1497.1 356.842 1497.39 346.775 1489.15 347.976C1489.44 343.963 1496.28 338.533 1499.63 340.912C1503.17 336.25 1503.05 334.04 1501.47 330.411C1500.55 328.321 1494.08 327.264 1499.04 321.377C1504.75 314.577 1513.4 329.018 1516.99 319.19C1518.43 320.32 1520.81 319.863 1522.04 318.638C1524.82 315.85 1520.69 314.192 1519.8 311.958C1518.05 307.609 1513.81 302.803 1515.79 297.397C1517.32 293.192 1522.65 290.957 1526.38 289.395C1528.29 288.602 1538.48 287.545 1539.28 286.416C1532.75 295.45 1548.13 306.239 1554.85 297.805C1553.06 300.04 1561.11 308.786 1562.92 310.132C1575.17 297.18 1565.97 283.388 1558.94 270.701C1561.53 271.182 1565.16 269.62 1567.74 269.956C1568.8 262.58 1563.8 258.375 1556.48 258.615C1556.84 256.092 1559.36 250.782 1561.13 248.764C1566.74 250.638 1572.5 249.989 1577.29 246.697C1576.06 245.52 1574.25 241.964 1572.97 240.834C1584.53 236.413 1593.02 244.679 1604.58 243.405C1611.59 242.636 1608.78 234.13 1617.94 237.35C1618.22 237.446 1620.84 242.66 1623.95 243.814C1622.82 246.385 1623.17 248.451 1622.75 250.95C1625.18 251.767 1627.4 252.584 1629.95 253.065C1633.51 268.058 1637.61 249.364 1644.43 251.311C1654.69 254.266 1641.58 268.995 1656.79 266.905C1656.93 267.337 1655.92 269.308 1655.87 269.284C1659.27 271.494 1661.01 270.581 1664.62 270.966C1664.93 256.597 1690.29 278.655 1702.18 270.966C1699.07 255.492 1726.36 265.655 1735.59 253.617C1738.49 249.821 1732.5 246.048 1737.12 242.036C1743.49 236.485 1751.94 244.15 1756.65 240.234C1767.91 230.839 1749.55 226.465 1753.47 216.302C1741.6 216.518 1741.27 201.404 1753.73 203.615C1762.76 205.225 1757.64 215.34 1766.94 215.749C1767.62 214.548 1767.03 212.866 1767.46 211.52C1769.44 212.842 1772.15 213.274 1774.37 214.283C1775.27 210.054 1777.79 205.345 1777.93 200.875C1785.32 203.374 1783.36 198.785 1787.77 196.118C1793.81 192.466 1794.68 190.567 1801.88 189.606C1812.82 188.141 1811.98 195.181 1821.32 196.19C1826.37 196.743 1826.51 190.447 1830.31 189.847C1835.9 188.982 1841.82 193.162 1847.01 192.153C1851.51 191.288 1854.6 187.468 1858.85 186.098C1871.92 181.821 1883.81 190.543 1897.47 187.924C1901.88 187.083 1908.3 183.767 1914.79 181.437C1916.93 180.668 1919.88 179.899 1919.88 179.899L1920 467.492L0 467.732C0.401052 394.591 0.18873 0.26431 0.18873 0C0.18873 0.384451 2.90173 2.33073 3.23201 2.57101C3.60947 2.85935 5.23726 3.62825 5.44959 3.91659C6.06296 4.82966 5.49677 5.35828 5.52036 6.46358C5.56754 8.04944 6.2281 7.25651 6.51119 8.21763C6.51119 8.24166 6.79429 10.0678 6.65274 9.87558C7.99744 11.7257 12.3854 11.2212 13.2347 14.0325C13.6594 15.378 12.409 16.4353 13.2347 17.5886C14.1784 18.9102 15.24 17.5886 16.0893 18.0452C17.3396 18.6939 17.0801 20.2317 16.7734 21.289C16.2544 23.1151 15.122 23.043 14.202 24.3405C15.641 25.1335 15.4051 26.3349 14.8861 27.6324C14.1312 29.4826 13.4234 29.4345 14.5322 31.4048C15.641 33.4232 17.6227 33.4712 17.7878 35.6097C17.8822 36.8592 17.3868 39.0938 16.16 39.5984C14.9569 40.103 14.8861 39.1659 13.8717 39.0938C12.5977 39.0217 12.9044 39.3822 11.7956 40.2232C9.83756 41.6889 7.87949 42.3857 7.45484 45.2691C7.10097 47.5998 8.3985 47.9602 8.87032 49.6182C9.2006 50.7475 8.70518 51.3242 8.68159 52.5016C8.68159 53.5348 8.9175 55.7694 10.0263 56.2259C10.6868 56.4902 11.6777 55.8415 12.5506 56.0337C13.966 56.3461 15.1692 57.3793 16.6319 57.6676C14.721 57.3072 17.0329 62.281 17.4575 62.7135C19.1561 64.4436 22.4353 63.6987 24.4406 64.2994C31.0225 66.2937 28.0972 68.4322 30.4328 73.8386C30.5743 74.1509 33.3109 74.9919 33.8535 75.6887C34.2545 76.1933 33.4288 78.3318 34.3489 79.4612C36.4721 82.1283 39.3503 80.8067 41.7802 82.2244C45.1065 84.1467 47.5128 88.712 50.5561 90.8986C53.3871 92.9169 55.0856 92.7728 53.623 96.5212C52.2783 99.9572 47.678 101.639 44.4932 100.438C43.1249 103.369 41.0016 106.541 39.6333 108.968C39.3974 109.4 39.9872 110.842 39.3031 111.827C38.1707 113.509 35.8823 113.629 34.4433 114.807C34.4433 114.807 30.7866 118.988 30.9518 118.315C29.6542 123.769 33.6648 121.438 37.6045 121.366C38.1471 127.013 42.4643 126.052 37.6753 132.107C40.2231 134.75 35.5285 137.633 34.9859 140.349C34.5376 142.631 35.3869 143.328 35.5285 145.443C35.5992 146.644 34.7971 152.122 35.0331 152.819C36.0003 155.654 43.1249 157.577 46.6164 158.033C50.1315 158.514 55.9585 154.669 58.1997 157.985C58.1761 157.937 60.3937 153.444 60.2993 152.363C60.1106 150.536 59.0018 149.696 58.1053 148.254C55.5339 144.145 52.3255 143.184 55.6754 138.282C56.1708 137.561 58.2469 136.384 59.0254 135.447C60.1578 134.101 60.9835 129.416 62.6113 128.671C66.3387 126.965 77.0255 132.9 80.6822 134.606C79.9273 137.705 73.3689 148.182 82.0977 147.413C83.4424 155.342 91.7229 144.938 97.1961 147.413C97.1017 148.134 97.432 149.119 97.314 149.816C98.2813 149.816 99.1777 150.512 100.192 150.44C101.891 150.344 90.5433 186.939 110.785 176.847L110.808 176.919Z" fill="#004F6C"/>
<rect y="433" width="1920" height="84" fill="#004F6C"/>
</g>
<defs>
<clipPath id="clip0_2_2006">
<rect width="1920" height="468" fill="white"/>
</clipPath>
</defs>
</svg>
