<svg width="414" height="88" viewBox="0 0 414 88" fill="none" xmlns="http://www.w3.org/2000/svg">
<path d="M376.393 19.1556C376.561 18.7729 387.273 17.6011 391.621 18.1751C395.944 18.749 404.759 22.8862 406.416 22.958C408.073 23.0297 413.622 21.0926 413.622 21.0926C413.622 21.0926 408.89 23.9863 409.01 24.7994C409.13 25.6125 411.988 28.6257 411.988 28.6257C411.988 28.6257 408.242 25.5408 406.368 24.919C404.495 24.2972 398.61 27.0235 390.708 25.1103C382.806 23.1971 376.249 19.5621 376.393 19.1556Z" fill="#50BDDB"/>
<path d="M358.163 40.296C362.006 41.3244 368.755 43.5962 369.692 43.381C370.629 43.1658 375.577 40.8939 375.577 40.8939C375.577 40.8939 373.055 43.668 372.983 44.1463C372.91 44.6246 376.033 47.1117 376.033 47.1117C376.033 47.1117 372.046 45.342 369.956 45.1746C367.867 45.0072 360.109 48.2357 352.687 46.6573C345.265 45.0789 343.512 44.9115 343.848 44.218C344.833 42.1853 354.272 39.2677 358.115 40.296H358.163Z" fill="#50BDDB"/>
<path d="M362.727 15.3292C362.727 15.3292 359.22 13.9661 357.707 13.9422C356.17 13.9422 352.519 17.3381 346.25 17.8164C339.981 18.2946 334.265 17.1946 334.313 16.8598C334.337 16.525 341.927 13.1052 345.265 12.5073C348.604 11.9095 356.049 12.8182 357.298 12.4834C358.523 12.1486 362.126 9.37451 362.126 9.37451C362.126 9.37451 359.34 12.6269 359.628 13.2008C359.916 13.7748 362.727 15.3053 362.727 15.3053V15.3292Z" fill="#50BDDB"/>
<path d="M334.481 31.6868C334.409 31.9738 336.114 33.6956 336.114 33.6956C336.114 33.6956 333.832 32.3564 332.607 32.0934C331.358 31.8303 326.459 33.2413 322.111 31.7585C317.764 30.2758 316.707 30.0606 316.971 29.6541C317.716 28.5062 323.601 27.43 325.858 28.3149C328.092 29.1997 332.007 31.0411 332.583 30.9933C333.16 30.9215 336.306 29.9171 336.306 29.9171C336.306 29.9171 334.601 31.3998 334.505 31.6868H334.481Z" fill="#50BDDB"/>
<path d="M290.96 43.6919C291.896 43.5245 293.241 43.5006 294.658 43.5245C296.796 42.9027 299.966 42.6157 301.48 43.2136C301.552 43.2375 301.624 43.2854 301.696 43.3093C302.993 42.5918 304.914 41.1091 304.914 41.1091C304.914 41.1091 303.353 42.9506 302.945 43.8593C305.106 44.792 307.7 45.9638 308.181 45.916C308.757 45.8442 311.904 44.8398 311.904 44.8398C311.904 44.8398 310.198 46.3225 310.102 46.6095C310.03 46.8965 311.736 48.6183 311.736 48.6183C311.736 48.6183 309.454 47.2791 308.229 47.016C306.98 46.753 302.08 48.1639 297.733 46.6812C297.637 46.6573 297.541 46.6095 297.469 46.5856C295.979 47.2552 294.106 47.9248 291.776 48.1161C286.588 48.5226 281.857 47.59 281.881 47.3269C281.881 47.0639 288.197 44.218 290.96 43.7158V43.6919Z" fill="#50BDDB"/>
<path d="M267.445 23.8428C271.288 24.8712 278.038 27.1431 278.974 26.9278C279.911 26.7126 284.859 24.4407 284.859 24.4407C284.859 24.4407 282.337 27.2148 282.265 27.6931C282.193 28.1714 285.315 30.6585 285.315 30.6585C285.315 30.6585 281.328 28.8888 279.239 28.7214C277.149 28.554 269.391 31.7825 261.993 30.2041C254.572 28.6258 252.818 28.4584 253.154 27.7648C254.139 25.7321 263.578 22.8145 267.421 23.8428H267.445Z" fill="#50BDDB"/>
<path d="M237.014 6.88739C237.134 6.5765 245.397 5.4286 248.759 5.78732C252.122 6.14604 259.039 9.11144 260.312 9.13536C261.585 9.13536 265.836 7.50917 265.836 7.50917C265.836 7.50917 262.257 9.85279 262.354 10.4746C262.474 11.0964 264.755 13.3682 264.755 13.3682C264.755 13.3682 261.777 11.0724 260.312 10.642C258.847 10.2115 254.379 12.4356 248.207 11.1442C242.058 9.85279 236.894 7.19828 237.014 6.88739Z" fill="#50BDDB"/>
<path d="M231.322 45.7964C232.066 44.6485 237.951 43.5723 240.209 44.4572C242.442 45.342 246.357 47.1834 246.934 47.1356C247.51 47.0639 250.657 46.0595 250.657 46.0595C250.657 46.0595 248.951 47.5422 248.879 47.8291C248.807 48.1161 250.512 49.838 250.512 49.838C250.512 49.838 248.231 48.4987 247.006 48.2357C245.757 47.9726 240.857 49.3836 236.51 47.9009C232.162 46.4182 231.106 46.2029 231.37 45.7964H231.322Z" fill="#50BDDB"/>
<path d="M201.227 21.0448C202.548 20.6861 206.439 17.7207 206.439 17.7207C206.439 17.7207 203.46 21.2361 203.749 21.834C204.061 22.4558 207.087 24.082 207.087 24.082C207.087 24.082 203.316 22.6232 201.683 22.5993C200.026 22.5993 196.087 26.2582 189.337 26.7843C182.588 27.3104 176.44 26.1147 176.488 25.756C176.512 25.3973 184.702 21.7144 188.281 21.0687C191.859 20.423 199.906 21.4035 201.227 21.0448Z" fill="#50BDDB"/>
<path d="M174.95 40.1765C175.599 38.8612 181.748 36.948 184.27 37.6176C186.767 38.2872 191.187 39.7699 191.787 39.6264C192.388 39.483 195.63 38.0002 195.63 38.0002C195.63 38.0002 193.997 39.8178 193.949 40.1286C193.901 40.4395 195.943 42.0657 195.943 42.0657C195.943 42.0657 193.349 40.9178 191.979 40.7983C190.61 40.6787 185.543 42.8071 180.715 41.7548C175.887 40.7265 174.734 40.6069 174.95 40.1526V40.1765Z" fill="#50BDDB"/>
<path d="M183.693 10.8811C183.693 10.8811 181.411 9.99628 180.403 9.97236C179.394 9.97236 177.016 12.1964 172.933 12.5073C168.85 12.8182 165.127 12.1008 165.127 11.8855C165.127 11.6703 170.099 9.44624 172.284 9.0397C174.47 8.63315 179.322 9.25493 180.138 9.0397C180.931 8.82446 183.285 7.00696 183.285 7.00696C183.285 7.00696 181.483 9.13535 181.652 9.49407C181.844 9.85279 183.693 10.8572 183.693 10.8572V10.8811Z" fill="#50BDDB"/>
<path d="M144.639 32.189C143.823 32.0216 140.628 32.9304 137.794 31.9738C134.96 30.9933 134.263 30.8498 134.431 30.6107C134.912 29.8693 138.755 29.1519 140.22 29.7258C141.685 30.2998 144.231 31.5194 144.615 31.4716C144.999 31.4237 147.041 30.7781 147.041 30.7781C147.041 30.7781 145.912 31.7586 145.864 31.926C145.816 32.1173 146.921 33.2413 146.921 33.2413C146.921 33.2413 145.432 32.3564 144.615 32.189H144.639Z" fill="#50BDDB"/>
<path d="M380.692 29.5345C380.692 29.5345 376.177 27.7648 374.183 27.7409C372.214 27.7409 367.482 32.1412 359.364 32.7629C351.246 33.3847 343.872 31.9499 343.92 31.5433C343.944 31.1128 353.792 26.6887 358.091 25.8995C362.39 25.1103 372.046 26.306 373.655 25.8756C375.24 25.4451 379.924 21.8579 379.924 21.8579C379.924 21.8579 376.345 26.0669 376.705 26.8082C377.066 27.5496 380.741 29.5106 380.741 29.5106L380.692 29.5345Z" fill="#50BDDB"/>
<path d="M325.594 51.4881C329.437 52.5164 336.186 54.7883 337.123 54.573C338.06 54.3578 343.007 52.0859 343.007 52.0859C343.007 52.0859 340.486 54.86 340.413 55.3383C340.341 55.8166 343.464 58.3037 343.464 58.3037C343.464 58.3037 339.477 56.534 337.387 56.3666C335.298 56.1992 327.54 59.4277 320.118 57.8493C312.696 56.271 310.943 56.1036 311.279 55.41C312.264 53.3773 321.703 50.4597 325.546 51.4881H325.594Z" fill="#50BDDB"/>
<path d="M326.387 22.6949C326.387 22.6949 322.88 21.3318 321.367 21.3079C319.83 21.3079 316.179 24.7037 309.91 25.182C303.641 25.6603 297.925 24.5602 297.973 24.2254C297.973 23.8906 305.587 20.4708 308.925 19.873C312.264 19.2751 319.734 20.1839 320.959 19.8491C322.184 19.5143 325.786 16.7402 325.786 16.7402C325.786 16.7402 323 19.9926 323.288 20.5665C323.577 21.1405 326.387 22.671 326.387 22.671V22.6949Z" fill="#50BDDB"/>
<path d="M266.629 58.6146C269.391 58.1124 275.588 58.8776 276.597 58.6146C277.605 58.3276 280.608 56.0557 280.608 56.0557C280.608 56.0557 278.302 58.7581 278.542 59.2364C278.782 59.7147 281.112 60.9821 281.112 60.9821C281.112 60.9821 278.206 59.8581 276.933 59.8342C275.66 59.8103 272.633 62.6561 267.421 63.0627C262.233 63.4692 257.502 62.5366 257.526 62.2735C257.55 62.0105 263.843 59.1646 266.605 58.6624L266.629 58.6146Z" fill="#50BDDB"/>
<path d="M205.43 45.2942C209.273 46.3225 216.022 48.5944 216.959 48.3792C217.895 48.1639 222.843 45.8921 222.843 45.8921C222.843 45.8921 220.321 48.6662 220.249 49.1444C220.177 49.6227 223.3 52.1099 223.3 52.1099C223.3 52.1099 219.312 50.3402 217.223 50.1728C215.133 50.0054 207.375 53.2338 199.954 51.6555C192.532 50.0771 190.779 49.9097 191.115 49.2162C192.1 47.1835 201.539 44.2659 205.382 45.2942H205.43Z" fill="#50BDDB"/>
<path d="M215.253 5.59603C215.373 6.21781 217.655 8.48969 217.655 8.48969C217.655 8.48969 214.677 6.1939 213.212 5.76343C211.747 5.33297 207.279 7.55703 201.107 6.26564C194.958 4.97425 189.794 2.31974 189.914 2.00885C190.034 1.69796 198.296 0.55006 201.659 0.908779C205.022 1.2675 211.939 4.2329 213.212 4.25682C214.485 4.25682 218.736 2.63063 218.736 2.63063C218.736 2.63063 215.157 4.97425 215.253 5.59603Z" fill="#50BDDB"/>
<path d="M222.627 63.1584C221.378 62.8953 216.478 64.3063 212.131 62.8236C207.784 61.3408 206.727 61.1256 206.991 60.7191C207.736 59.5712 213.62 58.495 215.878 59.3799C218.112 60.2647 222.027 62.1061 222.603 62.0583C223.179 61.9865 226.326 60.9821 226.326 60.9821C226.326 60.9821 224.621 62.4648 224.524 62.7518C224.452 63.0388 226.158 64.7606 226.158 64.7606C226.158 64.7606 223.876 63.4214 222.651 63.1584H222.627Z" fill="#50BDDB"/>
<path d="M102.703 18.8207C102.703 18.8207 98.932 17.338 97.2988 17.338C95.6415 17.338 91.7025 20.997 84.9773 21.5231C78.2281 22.0492 72.0794 20.8535 72.1034 20.4948C72.1274 20.136 80.3177 16.4532 83.8965 15.8075C87.4752 15.1618 95.5214 16.1423 96.8424 15.7836C98.1634 15.4249 102.054 12.4595 102.054 12.4595C102.054 12.4595 99.0761 15.9749 99.3643 16.5728C99.6766 17.1706 102.703 18.8207 102.703 18.8207Z" fill="#50BDDB"/>
<path d="M167.457 54.5491C168.081 54.4056 171.3 52.9229 171.3 52.9229C171.3 52.9229 169.642 54.7404 169.618 55.0513C169.57 55.3622 171.612 56.9884 171.612 56.9884C171.612 56.9884 169.018 55.8405 167.649 55.7209C166.28 55.6013 161.236 57.7058 156.384 56.6775C151.556 55.6492 150.404 55.5296 150.62 55.0752C151.244 53.7599 157.417 51.8467 159.939 52.5164C162.461 53.186 166.856 54.6687 167.457 54.5252V54.5491Z" fill="#50BDDB"/>
<path d="M159.362 25.8038C159.362 25.8038 157.081 24.9189 156.072 24.895C155.063 24.895 152.685 27.1191 148.602 27.43C144.519 27.7409 140.796 27.0234 140.796 26.8082C140.796 26.593 145.768 24.3689 147.954 23.9624C150.115 23.5558 154.991 24.1776 155.808 23.9624C156.6 23.7471 158.954 21.9296 158.954 21.9296C158.954 21.9296 157.153 24.058 157.321 24.4167C157.513 24.7755 159.362 25.7799 159.362 25.7799V25.8038Z" fill="#50BDDB"/>
<path d="M110.101 45.5094C110.581 44.768 114.424 44.0506 115.889 44.6246C117.354 45.1985 119.9 46.4181 120.284 46.3703C120.669 46.3225 122.71 45.6768 122.71 45.6768C122.71 45.6768 121.581 46.6573 121.533 46.8247C121.485 47.016 122.59 48.14 122.59 48.14C122.59 48.14 121.101 47.2552 120.284 47.0878C119.468 46.9204 116.273 47.8291 113.439 46.8725C110.605 45.9159 109.908 45.7485 110.077 45.5094H110.101Z" fill="#50BDDB"/>
<path d="M218.352 80.7117C222.507 79.9464 231.85 81.0943 233.387 80.6878C234.924 80.2573 239.44 76.8136 239.44 76.8136C239.44 76.8136 235.981 80.903 236.318 81.5965C236.678 82.3139 240.209 84.2271 240.209 84.2271C240.209 84.2271 235.837 82.5292 233.916 82.5053C232.018 82.5053 227.431 86.7621 219.601 87.3599C211.771 87.9578 204.637 86.5707 204.661 86.1642C204.685 85.7576 214.197 81.4769 218.352 80.7117Z" fill="#50BDDB"/>
<path d="M163.806 77.1005C167.649 78.1289 174.398 80.4007 175.335 80.1855C176.271 79.9703 181.219 77.6984 181.219 77.6984C181.219 77.6984 178.697 80.4725 178.625 80.9508C178.553 81.4291 181.7 83.9162 181.7 83.9162C181.7 83.9162 177.713 82.1465 175.623 81.9791C173.533 81.8117 165.775 85.0402 158.378 83.4618C150.956 81.8834 149.203 81.716 149.539 81.0225C150.524 78.9898 159.963 76.0722 163.806 77.1005Z" fill="#50BDDB"/>
<path d="M228.319 31.0172C228.319 31.0172 224.813 29.654 223.3 29.6301C221.762 29.6301 218.112 33.026 211.843 33.5043C205.574 33.9826 199.858 32.8825 199.906 32.5477C199.93 32.2129 207.519 28.7931 210.858 28.1952C214.197 27.5974 221.642 28.5061 222.891 28.1713C224.116 27.8365 227.719 25.0624 227.719 25.0624C227.719 25.0624 224.933 28.3148 225.221 28.8888C225.509 29.4627 228.319 30.9933 228.319 30.9933V31.0172Z" fill="#50BDDB"/>
<path d="M147.329 3.70676C147.257 3.99374 148.962 5.71559 148.962 5.71559C148.962 5.71559 146.681 4.37637 145.456 4.11331C144.207 3.85025 139.307 5.26121 134.96 3.77851C130.612 2.2958 129.556 2.08057 129.82 1.67403C130.564 0.526127 136.449 -0.550028 138.707 0.33481C140.94 1.21965 144.855 3.06107 145.432 3.01324C146.008 2.9415 149.155 1.93709 149.155 1.93709C149.155 1.93709 147.449 3.41979 147.377 3.70676H147.329Z" fill="#50BDDB"/>
<path d="M156.552 59.3798C159.314 58.8776 165.511 59.6429 166.52 59.3798C167.529 59.0929 170.531 56.821 170.531 56.821C170.531 56.821 168.225 59.5233 168.465 60.0016C168.706 60.4799 171.035 61.7474 171.035 61.7474C171.035 61.7474 168.129 60.6234 166.856 60.5995C165.583 60.5995 162.557 63.4214 157.345 63.828C152.157 64.2345 147.425 63.3018 147.449 63.0388C147.449 62.7757 153.766 59.9299 156.528 59.4277L156.552 59.3798Z" fill="#50BDDB"/>
<path d="M118.771 43.4288C119.756 41.3961 129.195 38.4785 133.038 39.5068C136.881 40.5352 143.63 42.8071 144.567 42.5918C145.504 42.3766 150.452 40.1047 150.452 40.1047C150.452 40.1047 147.93 42.8788 147.858 43.3571C147.786 43.8354 150.908 46.3225 150.908 46.3225C150.908 46.3225 146.921 44.5528 144.831 44.3854C142.742 44.218 134.984 47.4465 127.586 45.8681C120.164 44.2898 118.411 44.1224 118.747 43.4288H118.771Z" fill="#50BDDB"/>
<path d="M127.946 26.1626C128.066 26.7843 130.348 29.0562 130.348 29.0562C130.348 29.0562 127.37 26.7604 125.905 26.33C124.44 25.8995 119.972 28.1236 113.799 26.8322C107.651 25.5408 102.487 22.8863 102.607 22.5754C102.727 22.2645 110.989 21.1166 114.352 21.4753C117.714 21.834 124.632 24.7994 125.905 24.8233C127.178 24.8233 131.429 23.1972 131.429 23.1972C131.429 23.1972 127.85 25.5408 127.946 26.1626Z" fill="#50BDDB"/>
<path d="M105.801 60.1451C108.035 61.03 111.95 62.8714 112.526 62.8235C113.103 62.7757 116.249 61.7474 116.249 61.7474C116.249 61.7474 114.544 63.2301 114.472 63.5171C114.4 63.804 116.105 65.5259 116.105 65.5259C116.105 65.5259 113.823 64.1867 112.598 63.9236C111.35 63.6606 106.45 65.0715 102.102 63.5888C97.7551 62.1061 96.6983 61.8909 96.9625 61.4843C97.707 60.3364 103.592 59.2603 105.849 60.1451H105.801Z" fill="#50BDDB"/>
<path d="M73.6646 40.7504C77.2433 40.1047 85.2895 41.0852 86.6105 40.7265C87.9316 40.3677 91.8225 37.4023 91.8225 37.4023C91.8225 37.4023 88.8443 40.9178 89.1325 41.5156C89.4447 42.1135 92.471 43.7636 92.471 43.7636C92.471 43.7636 88.7001 42.3048 87.0669 42.2809C85.4096 42.2809 81.4706 45.9398 74.7454 46.466C67.9962 46.9921 61.8475 45.7964 61.8715 45.4376C61.8955 45.0789 70.0858 41.3961 73.6646 40.7504Z" fill="#50BDDB"/>
<path d="M49.8623 53.3056C52.3603 53.9752 56.7797 55.4579 57.3801 55.3144C57.9806 55.1709 61.2231 53.6882 61.2231 53.6882C61.2231 53.6882 59.5658 55.5057 59.5418 55.8166C59.4937 56.1275 61.5353 57.7537 61.5353 57.7537C61.5353 57.7537 58.9413 56.6058 57.5723 56.4862C56.2032 56.3667 51.1593 58.4951 46.3076 57.4428C41.4799 56.4145 40.327 56.2949 40.5432 55.8405C41.1917 54.5252 47.3404 52.6121 49.8623 53.2817V53.3056Z" fill="#50BDDB"/>
<path d="M37.8771 24.7515C40.0388 24.345 44.9145 24.9429 45.7311 24.7515C46.5237 24.5363 48.8776 22.7188 48.8776 22.7188C48.8776 22.7188 47.0762 24.8472 47.2443 25.2059C47.4364 25.5646 49.2859 26.5691 49.2859 26.5691C49.2859 26.5691 47.0041 25.6842 45.9953 25.6603C44.9866 25.6603 42.6087 27.8844 38.5256 28.1952C34.4425 28.5061 30.7196 27.7887 30.7196 27.5735C30.7196 27.3582 35.6914 25.1342 37.8531 24.7276L37.8771 24.7515Z" fill="#50BDDB"/>
<path d="M0.000236397 46.2747C0.480605 45.5333 4.32356 44.8159 5.78868 45.3898C7.25381 45.9638 9.79976 47.1834 10.1841 47.1356C10.5684 47.0877 12.6099 46.4421 12.6099 46.4421C12.6099 46.4421 11.4811 47.4226 11.433 47.59C11.385 47.7813 12.4898 48.9053 12.4898 48.9053C12.4898 48.9053 11.0007 48.0204 10.1841 47.853C9.36743 47.6856 6.17298 48.5944 3.3388 47.6378C0.504624 46.6812 -0.191911 46.5138 -0.023782 46.2747H0.000236397Z" fill="#50BDDB"/>
</svg>
