<svg width="85" height="82" viewBox="0 0 85 82" fill="none" xmlns="http://www.w3.org/2000/svg">
<path d="M84.9595 31.3644C83.4583 26.7393 56.3864 31.3645 51.6576 32.9145C51.6576 32.6895 51.6825 32.4395 51.6825 32.2145C51.6825 27.3394 47.7293 0.0383911 42.8504 0.0383911C37.9714 0.0383911 34.0433 27.2143 34.0433 32.1645C33.8181 32.0895 33.6179 31.9895 33.3927 31.9395C28.764 30.4394 1.54191 25.7393 0.0657164 30.3894C-1.4355 35.0146 23.2345 47.165 27.9133 48.715C27.7632 48.89 27.6131 49.065 27.4629 49.265C24.5856 53.2152 11.7502 77.616 15.6784 80.4661C19.6066 83.3162 38.7971 63.6405 41.7245 59.6654C41.8496 59.8654 41.9497 60.0654 42.0998 60.2655C44.9771 64.2156 64.2177 83.9662 68.1459 81.1161C72.0741 78.266 59.2887 53.9652 56.3863 49.9401C56.6115 49.8901 56.8368 49.8151 57.0619 49.7401C61.6907 48.24 86.4357 36.0396 84.9345 31.4145L84.9595 31.3644Z" fill="#FF893B"/>
<path d="M56.236 63.7154C55.3853 62.9903 54.4346 62.1403 53.3837 61.1653C49.5806 57.6152 46.4781 54.2151 45.8275 53.2901C45.8025 53.2401 45.7775 53.1901 45.7274 53.1401L42.2497 47.4399L38.3215 52.8401C37.6459 53.7651 34.5184 57.1901 30.7403 60.7403C29.6895 61.7153 28.7388 62.5654 27.8881 63.2904C28.3134 62.2404 28.8388 61.0903 29.4393 59.7653C31.6411 55.0651 33.9429 51.065 34.5935 50.1399C34.6185 50.1149 34.6685 50.065 34.7185 50.015L39.0721 44.9398L32.717 42.8647C31.6161 42.5147 27.4127 40.6146 22.859 38.1145C21.608 37.4145 20.507 36.7895 19.5563 36.1895C25.5361 36.6645 32.5669 38.0145 34.1431 38.5146C34.1932 38.5146 34.2432 38.5646 34.3182 38.5896L40.4733 41.1396V34.4644C40.4733 33.3144 40.9986 28.7142 41.9744 23.639C42.2496 22.239 42.4999 20.989 42.7751 19.9139C43.0253 21.014 43.3005 22.264 43.5757 23.6891C44.5515 28.7893 45.0519 33.3644 45.0519 34.4894C45.0519 34.5144 45.0519 34.5644 45.0519 34.6644L44.5265 41.3146L50.8817 39.2646C52.458 38.7645 59.4886 37.4145 65.4434 36.9395C64.4927 37.5395 63.3668 38.1645 62.1158 38.8645C57.5621 41.3896 53.3587 43.2647 52.2828 43.6148C52.2578 43.6148 52.2077 43.6147 52.1077 43.6647L45.6274 45.2148L49.5306 50.615C50.2061 51.54 52.508 55.5651 54.7098 60.2403C55.3103 61.5403 55.8357 62.6903 56.261 63.7154H56.236Z" fill="#FFAF7A"/>
</svg>
