<svg width="155" height="270" viewBox="0 0 155 270" fill="none" xmlns="http://www.w3.org/2000/svg">
<path d="M45.3997 27.7768L42.3794 29.4089L50.9673 45.2961L53.9876 43.664L45.3997 27.7768Z" fill="white"/>
<path d="M56.6179 44.704C57.842 47.0024 56.9762 49.868 54.7073 51.0919L38.0784 60.0468C35.7796 61.2707 32.9136 60.4349 31.6895 58.1364C30.4655 55.838 31.3014 52.9724 33.6002 51.7486L50.2291 42.7936C52.5279 41.5698 55.3939 42.4056 56.6179 44.704Z" fill="#C4C4C4"/>
<path d="M13.2694 23.9285C12.8813 23.839 12.4932 24.0778 12.3738 24.4658L11.4483 27.1523L10.6422 24.5255L7.95532 17.481C7.8359 17.0929 7.41793 16.884 7.02983 17.0034C6.64172 17.1228 6.43274 17.5407 6.55216 17.8989L8.34343 24.227C8.34343 24.227 8.28371 24.227 8.25386 24.2867L5.68638 16.4064C5.56696 16.0183 5.14901 15.8094 4.7609 15.9288C4.37279 16.0482 4.16381 16.4661 4.28323 16.8541L6.28347 25.0031H6.19391L3.80556 17.7496C3.68614 17.3616 3.26818 17.1526 2.88007 17.272C2.49197 17.3914 2.28299 17.8093 2.4024 18.1974L4.22352 25.8091C4.22352 25.8091 4.16382 25.8389 4.13396 25.8688L2.074 19.6302C1.95459 19.2421 1.53663 19.0332 1.14852 19.1526C0.760418 19.272 0.551438 19.6899 0.670855 20.0779L2.93978 29.1224C2.93978 29.1224 2.96963 29.1821 2.96963 29.212C2.96963 29.2418 2.96963 29.2717 2.96963 29.3314L5.32813 33.8387C5.83565 35.5103 7.56721 36.4356 9.17935 35.9282L10.6124 35.0327C12.2245 34.5252 12.4036 32.1969 12.6126 31.1223V31.003L13.7471 24.824C13.8366 24.436 13.5978 24.0479 13.2097 23.9584L13.2694 23.9285Z" fill="#FCDFD8"/>
<path d="M54.8864 46.9128C58.3495 53.3305 56.4687 61.0317 50.7068 64.1361C44.9449 67.2405 37.4813 64.554 34.048 58.1363C30.6148 51.7485 32.4658 44.0173 38.2276 40.9428C43.9895 37.8384 51.4531 40.5249 54.8864 46.9426V46.9128Z" fill="#593E2D"/>
<path d="M93.5478 104.822L80.6507 95.1203L75.1276 61.3303C75.1276 61.3303 75.3068 33.5998 70.8286 25.6896C66.44 17.8988 45.7211 9.27222 45.7211 9.27222L45.2136 14.1974C45.2136 14.1974 60.1706 25.3911 62.3798 32.4954C63.992 37.6594 60.2602 53.9574 60.2602 53.9574L48.7065 62.4945L35.6602 68.0764C35.6602 68.0764 20.9718 61.6587 17.9267 57.2409C13.8366 51.2709 13.5978 31.5402 13.5978 31.5402L8.76138 28.3761C8.76138 28.3761 3.92497 53.3604 7.68662 61.9572C11.3587 70.2853 33.2121 85.3893 33.2121 85.3893L57.1255 109.18L60.8871 121.627L80.5014 106.433L93.5478 104.762V104.822Z" fill="#FCDFD8"/>
<path d="M53.8787 43.7248L31.9824 55.5129L33.8931 59.061L55.7895 47.2729L53.8787 43.7248Z" fill="white"/>
<path d="M37.4216 13.2124C37.5111 12.8244 37.8992 12.5557 38.2874 12.6453L41.0937 12.9736L39.0934 11.0931L33.9286 5.63057C33.6301 5.36192 33.6301 4.88432 33.8988 4.61568C34.1674 4.31718 34.6451 4.28733 34.9437 4.58582L39.8696 8.97375C39.8696 8.97375 39.9293 8.9439 39.9592 8.91405L33.9883 3.15303C33.6898 2.88439 33.6898 2.40679 33.9585 2.10829C34.2272 1.80979 34.7048 1.80979 35.0034 2.07844L41.4519 7.42156L41.5116 7.33201L35.9886 2.01874C35.69 1.75009 35.69 1.2725 35.9587 0.973998C36.2274 0.6755 36.7051 0.675499 37.0036 0.944148L43.064 5.89922C43.064 5.89922 43.1238 5.86937 43.1536 5.83952L38.4366 1.27249C38.1381 1.00384 38.1381 0.526251 38.4068 0.227753C38.6755 -0.0707456 39.1531 -0.0707463 39.4517 0.197902L46.5869 6.19772C46.5869 6.19772 46.6466 6.25741 46.6466 6.28726C46.6466 6.28726 46.7063 6.28727 46.7361 6.34697L49.7813 10.4364C51.0352 11.6304 51.1247 13.5706 49.9903 14.7945L48.5573 15.69C47.3929 16.9138 45.2136 16.078 44.1687 15.7795L44.0791 15.69L38.0187 14.0482C37.6306 13.9587 37.3619 13.5706 37.4514 13.1826L37.4216 13.2124Z" fill="#FCDFD8"/>
<path d="M35.4811 59.0318C35.4811 59.0318 37.9291 65.0018 36.4961 73.0911C34.1078 86.4638 45.9002 86.7324 51.5128 81.9266C57.0956 77.1208 62.8874 78.5834 67.0968 75.2403C73.2767 70.3449 81.7852 66.5838 71.5451 61.2108C61.3349 55.8677 55.0954 48.9724 55.0954 48.9724L35.5109 59.0318H35.4811Z" fill="#593E2D"/>
<path d="M101.788 116.045L94.533 105.628C89.2488 101.001 80.0536 100.374 71.784 104.672C63.0963 109.18 59.275 116.284 60.6483 123.537H60.6184L60.708 123.806C60.917 124.731 63.6934 133.477 63.6934 133.477L66.6789 137.149L74.859 135.895C77.7847 135.895 80.8597 135.358 81.6359 129.985L84.9199 129.358L101.788 116.105V116.045Z" fill="#FF7369"/>
<path d="M84.2631 170.402C84.2631 170.402 83.248 168.581 83.1883 168.461L63.9621 134.403C62.141 131.03 65.2459 125.806 68.6194 123.985L70.6793 122.881C74.0529 121.06 82.1733 122.731 83.9944 126.104C83.9944 126.104 97.7871 168.402 98.2349 169.267C98.2349 169.267 100.116 174.312 97.1602 175.894L92.8014 175.625L84.2631 170.402Z" fill="#FFD4BF"/>
<path d="M89.4279 164.372L86.9798 165.476C84.9497 166.372 83.7257 168.402 83.5466 170.7C83.5466 171.834 84.2631 177.566 85.2781 180.371C87.5172 186.55 97.5781 205.983 97.5781 205.983C98.832 208.759 101.817 210.102 104.236 208.997L105.699 208.341C108.147 207.236 108.057 203.595 106.982 200.759C101.817 187.058 100.982 177.446 98.3842 169.685C96.4138 163.864 92.5029 162.999 89.398 164.372H89.4279Z" fill="#FCDFD8"/>
<path d="M106.087 201.475C102.624 197.117 98.3842 197.505 95.966 198.998C95.966 198.998 95.8764 199.057 95.8167 199.087C95.757 199.117 95.6973 199.147 95.6675 199.177C93.5179 201.057 91.8759 204.998 94.9808 209.624C95.9958 211.147 96.8616 213.117 97.6378 215.176L110.595 205.684C108.893 204.341 107.251 202.908 106.116 201.475H106.087Z" fill="#FF7369"/>
<path d="M154.242 247.504C154.242 247.504 152.809 247.175 150.838 247.295C147.405 247.444 142.3 248.877 139.941 255.414C139.643 256.19 139.404 257.056 139.195 258.011L139.404 258.279C139.404 258.279 139.225 258.279 139.165 258.279C139.165 258.369 139.135 258.429 139.106 258.518L138.897 258.25C137.941 258.16 137.016 258.13 136.18 258.16C129.254 258.429 126.358 262.876 125.164 266.1C124.477 267.981 124.358 269.443 124.358 269.443C111.699 258.369 101.788 226.609 100.474 223.385C99.6978 221.475 98.7723 218.281 97.6378 215.206L110.595 205.714C113.192 207.744 115.968 209.565 117.551 210.878C120.208 213.087 147.554 232.131 154.272 247.533L154.242 247.504Z" fill="#FFD86E"/>
<path d="M110.595 223.206L136.18 258.16C129.254 258.429 126.358 262.876 125.164 266.1C120.476 258.996 102.862 231.116 110.595 223.206Z" fill="#FFBE6E"/>
<path d="M150.838 247.265C147.405 247.414 142.3 248.847 139.941 255.384L114.326 220.43C124.178 215.445 145.494 240.638 150.838 247.265Z" fill="#FFBE6E"/>
<path d="M88.4726 113.896L91.3983 112.314C93.8165 111.001 96.6527 111.15 98.8619 112.433C99.9068 113.15 100.802 114.135 101.459 115.359L105.161 121.747L120.327 147.895C121.88 150.79 120.805 154.432 117.909 155.984L116.148 156.939C113.222 158.492 109.609 157.417 108.057 154.492L106.803 152.82L85.8155 124.97L85.3976 124.194C83.3973 120.463 84.8005 115.836 88.5024 113.836L88.4726 113.896Z" fill="#FFC6AB"/>
<path d="M100.474 138.164C98.4439 133 100.922 129.507 103.4 128.164C103.4 128.164 103.519 128.104 103.579 128.075C103.639 128.075 103.698 128.015 103.758 127.985C106.445 127.09 110.684 127.627 113.102 132.642C113.908 134.283 115.192 136.045 116.566 137.716L101.847 144.164C101.549 142.014 101.131 139.865 100.474 138.164Z" fill="#FF7369"/>
<path d="M116.148 202.908C116.148 202.908 116.566 201.505 117.67 199.834C119.521 196.938 123.342 193.237 130.179 194.49C131.015 194.64 131.881 194.849 132.806 195.147L132.956 195.446C132.956 195.446 133.015 195.296 133.045 195.207C133.135 195.207 133.194 195.267 133.284 195.296L133.165 194.998C133.553 194.132 134 193.326 134.448 192.61C138.15 186.759 143.464 186.461 146.838 187.058C148.808 187.386 150.122 188.013 150.122 188.013C146.898 171.506 124.387 146.97 122.268 144.253C120.984 142.612 118.685 140.224 116.595 137.686L101.877 144.134C102.325 147.387 102.504 150.701 102.862 152.731C103.459 156.133 106.206 189.326 116.148 202.878V202.908Z" fill="#FFD86E"/>
<path d="M117.013 152.94L134.389 192.61C138.091 186.759 143.405 186.461 146.778 187.058C142.987 179.416 127.701 150.223 116.983 152.94H117.013Z" fill="#FFBE6E"/>
<path d="M117.64 199.834C119.491 196.938 123.313 193.237 130.149 194.491L112.774 154.79C103.519 160.82 114.625 191.864 117.67 199.834H117.64Z" fill="#FFBE6E"/>
<path d="M45.124 97.7472C45.124 97.7472 44.8255 97.7472 44.7061 97.6576C44.4374 97.4785 44.3776 97.0905 44.5568 96.8219C44.706 96.6129 55.6327 77.8075 78.4713 80.0761C78.7997 80.0761 79.0386 80.4045 79.0087 80.7328C78.9789 81.0611 78.6803 81.2999 78.3519 81.2701C56.2298 79.0911 45.6912 97.2995 45.542 97.4786C45.4524 97.6278 45.3031 97.7174 45.1539 97.7472H45.124Z" fill="#FF7369"/>
<path d="M58.857 84.5533C55.9611 85.001 53.7818 84.5831 53.0056 83.419C52.6175 82.822 52.6175 82.1056 53.0056 81.419C53.3041 80.9116 53.7818 80.6131 54.4087 80.4937C56.7075 80.1355 60.5289 82.7623 60.9767 83.0608C61.1558 83.1802 61.2454 83.419 61.2155 83.6578C61.1857 83.8966 61.0065 84.0757 60.7677 84.1354C60.1109 84.3145 59.4541 84.4339 58.8272 84.5533H58.857ZM54.6177 81.6877C54.2594 81.7474 54.14 81.8966 54.0505 82.0459C53.7818 82.4638 53.931 82.7026 53.9908 82.7623C54.2893 83.21 55.6327 83.8667 58.6779 83.3891C58.6779 83.3891 58.9764 83.3294 59.1257 83.2996C57.7524 82.4936 55.7522 81.5086 54.6476 81.6877H54.6177Z" fill="#FF7369"/>
<path d="M60.6781 84.1654C60.6781 84.1654 60.3796 84.1653 60.2602 84.0758C60.0811 83.9564 59.9616 83.7176 59.9915 83.4788C60.1408 82.4042 61.126 76.9417 63.6039 76.5536C63.8427 76.5238 64.0815 76.5238 64.3204 76.5536C65.1563 76.7327 65.6937 77.27 65.8131 78.0163C66.0818 79.7177 64.201 82.0162 60.917 84.046C60.8573 84.1056 60.7677 84.1056 60.708 84.1355L60.6781 84.1654ZM63.8128 77.7178C62.8277 77.867 61.9619 80.1655 61.4543 82.2848C63.9621 80.4938 64.7383 78.9118 64.6189 78.2252C64.6189 78.1357 64.5592 77.8372 64.0517 77.7178C63.9621 77.7178 63.8726 77.7178 63.8128 77.7178Z" fill="#FF7369"/>
<path d="M59.7825 90.8219C59.7825 90.8219 59.5138 90.8219 59.3645 90.7324C59.0959 90.5533 59.0063 90.1951 59.1854 89.8966C60.7677 87.3594 59.9019 83.9565 59.9019 83.9266C59.8124 83.5983 60.0213 83.2699 60.3199 83.2102C60.6483 83.1207 60.9767 83.2998 61.0662 83.6281C61.0961 83.7774 62.0813 87.5385 60.2005 90.5533C60.1109 90.7025 59.9616 90.7921 59.7825 90.8219Z" fill="#FF7369"/>
<path d="M67.4849 87.4786C67.4849 87.4786 67.3954 87.4786 67.3357 87.4786C63.574 87.1204 60.7378 84.2847 60.6184 84.1653C60.3796 83.9265 60.3796 83.5384 60.6184 83.3295C60.8573 83.0907 61.2454 83.0907 61.4543 83.3295C61.4842 83.3295 64.1114 85.9861 67.4252 86.3145C67.7536 86.3443 67.9924 86.6428 67.9626 86.9712C67.9626 87.2398 67.7238 87.4786 67.4551 87.5085L67.4849 87.4786Z" fill="#FF7369"/>
</svg>
