<svg width="91" height="284" viewBox="0 0 91 284" fill="none" xmlns="http://www.w3.org/2000/svg">
<path d="M61.7829 31.8244L60.522 49.9683L63.9668 50.2083L65.2277 32.0643L61.7829 31.8244Z" fill="white"/>
<path d="M65.6236 52.4928C65.4434 55.1082 63.1914 57.0923 60.549 56.912L41.6017 55.5892C38.9893 55.4088 37.0075 53.1541 37.1876 50.5086C37.3678 47.8932 39.6499 45.9091 42.2623 46.0895L61.2096 47.4122C63.8219 47.5926 65.8037 49.8773 65.6236 52.4928Z" fill="#C4C4C4"/>
<path d="M39.9505 11.4875C39.6803 11.1868 39.1998 11.1868 38.8995 11.4875L36.6775 13.2611L37.3982 10.5856L38.8995 3.16014C38.9896 2.76933 38.7794 2.37852 38.3891 2.25827C37.9987 2.13802 37.6084 2.37852 37.4883 2.76933L35.6266 9.14259C35.6266 9.14259 35.5665 9.14259 35.5065 9.14259L37.5483 1.0257C37.6384 0.634892 37.4282 0.244078 37.0378 0.123828C36.6475 0.0035779 36.2271 0.244078 36.137 0.634891L33.4646 8.63152H33.3745L35.2662 1.11589C35.3563 0.725078 35.1461 0.304202 34.7558 0.214015C34.3654 0.0937647 33.945 0.334265 33.8549 0.725078L31.3026 8.18059C31.3026 8.18059 31.2426 8.18059 31.1825 8.18059L32.774 1.77727C32.864 1.38645 32.6538 0.995641 32.2635 0.875391C31.8731 0.785204 31.4828 0.995642 31.3627 1.38645L28.45 10.315C28.45 10.315 28.45 10.3751 28.45 10.4052C28.45 10.4353 28.45 10.4653 28.42 10.4954L27.9996 15.606C27.5492 17.2895 28.5101 19.0031 30.1616 19.454H31.8731C33.5246 19.905 34.9359 18.011 35.6566 17.2294V17.1092L39.9805 12.4795C40.2808 12.209 40.2808 11.728 39.9805 11.4273L39.9505 11.4875Z" fill="#FCDFD8"/>
<path d="M62.9814 53.4547C62.4709 60.7599 56.7357 66.3215 50.1897 65.8706C43.6438 65.4196 38.7193 59.1065 39.2297 51.8013C39.7402 44.4961 45.4754 38.9345 52.0214 39.3855C58.5674 39.8364 63.4919 46.1495 62.9814 53.4547Z" fill="#593E2D"/>
<path d="M55.2945 76.6631C55.0843 79.7896 52.3518 82.1645 49.2289 81.9541C46.1061 81.7436 43.7339 79.0079 43.9441 75.8814L44.5747 66.9829C44.7849 63.8564 47.5174 61.4815 50.6402 61.6919C53.7631 61.9024 56.1352 64.638 55.925 67.7645L55.2945 76.6631Z" fill="#FFBC9C"/>
<path d="M39.5901 64.0668L65.2635 63.0447C65.2635 63.0447 77.7249 51.4105 79.0761 46.0894C80.9078 38.8143 73.1307 20.7467 73.1307 20.7467L76.3136 16.8687C76.3136 16.8687 90.8769 36.0485 90.7267 45.1274C90.5466 54.3566 75.1425 77.7453 75.1425 77.7453L65.9842 108.71L65.7139 117.458L36.0469 115.414L39.6201 64.0668H39.5901Z" fill="#FCDFD8"/>
<path d="M59.8287 65.4798L34.5457 60.9103C34.5457 60.9103 24.3664 47.0815 23.976 41.5801C23.4355 34.1847 34.0652 17.3497 34.0652 17.3497L31.3027 11.8783C31.3027 11.8783 13.0461 30.2164 11.845 39.6561C10.6739 48.8251 22.7749 74.1077 22.7749 74.1077L27.5793 106.034L26.6184 114.752L56.2855 116.827L59.8588 65.4798H59.8287Z" fill="#FCDFD8"/>
<path d="M74.1514 157.862C74.1514 157.862 71.9293 133.692 70.7883 123.591C70.5781 121.847 68.7764 116.827 68.7764 116.827C66.9147 111.115 58.6572 106.094 48.2978 104.952C38.1185 103.809 29.1103 106.786 25.8973 111.806H25.8373C25.8373 111.806 22.9246 116.466 22.3241 118.209C19.0211 127.86 16.2886 154.284 16.2886 154.284L42.3824 157.17H42.4424L74.1814 157.862H74.1514Z" fill="#15679E"/>
<path d="M44.3645 157.08C44.0042 162.371 37.9987 166.279 30.9723 165.798C23.9459 165.317 18.541 160.598 18.9013 155.307C19.2616 149.986 25.2671 146.107 32.2935 146.588C39.3199 147.069 44.7249 151.789 44.3645 157.08Z" fill="#10507A"/>
<path d="M45.1752 157.14C44.5146 163.153 37.5183 167.302 29.531 166.43C21.5737 165.558 15.6283 159.966 16.2889 153.954C16.9495 147.941 23.9459 143.793 31.9332 144.664C39.8904 145.536 45.8358 151.128 45.1752 157.14Z" fill="#10507A"/>
<path d="M74.2719 159.816C73.6113 165.829 66.6149 169.977 58.6277 169.105C50.6704 168.234 44.725 162.642 45.3856 156.629C46.0462 150.617 53.0426 146.468 60.9998 147.34C68.9571 148.212 74.9025 153.804 74.2419 159.816H74.2719Z" fill="#10507A"/>
<path d="M24.9367 187.684L29.3807 190.901C33.6146 191.201 35.9867 176.561 35.7165 180.8L35.6564 181.671L35.8966 180.619C35.9867 179.417 39.3198 154.826 39.3198 154.826C39.59 150.978 36.6774 147.611 32.8339 147.34L30.5218 147.19C26.6783 146.919 21.2433 149.685 20.973 153.533L19.5918 173.555C19.5918 173.735 19.4116 176.2 19.4116 176.35" fill="#FFD4BF"/>
<path d="M29.4708 174.757L26.1678 174.276C23.4053 173.885 20.8229 174.998 19.1714 177.012C18.4508 178.064 15.5081 183.776 14.7574 186.962C13.1359 194.027 11.2442 218.017 11.2442 218.017C10.7938 221.294 13.0759 224.36 16.3489 224.811L18.3307 225.082C21.6337 225.533 23.9158 222.136 24.6064 218.889C27.9695 203.136 33.3143 193.787 35.5364 185.069C37.2179 178.515 33.6446 175.328 29.4408 174.757H29.4708Z" fill="#FCDFD8"/>
<path d="M22.5345 215.883C21.9039 210.321 18.0904 208.367 15.2378 208.307C15.2378 208.307 15.1177 208.307 15.0577 208.307C14.9976 208.307 14.9375 208.307 14.8775 208.307C12.0549 208.758 8.54172 211.223 8.69185 216.815C8.75191 218.648 8.4216 220.813 7.97119 222.947L24.0959 221.835C23.3452 219.761 22.7447 217.686 22.5345 215.853V215.883Z" fill="#15679E"/>
<path d="M38.7793 280.968C38.7793 280.968 37.7284 279.916 35.9868 278.954C32.984 277.24 27.8794 275.707 22.3543 280.036C21.6937 280.547 21.0031 281.148 20.3425 281.84V282.17C20.3425 282.17 20.2224 282.08 20.1623 282.02C20.1023 282.08 20.0422 282.14 19.9822 282.201V281.87C19.2015 281.269 18.4508 280.758 17.7001 280.337C11.6646 276.849 6.80015 279.074 4.06765 281.148C2.4762 282.351 1.57539 283.553 1.57539 283.553C-3.25902 267.32 5.38886 234.942 5.98941 231.485C6.34973 229.441 7.31061 226.224 7.97121 222.977L24.0959 221.865C25.2069 224.992 26.5882 228.028 27.2488 230.012C28.3298 233.319 41.3316 264.223 38.7793 280.968Z" fill="#FFD86E"/>
<path d="M14.6973 236.806L17.7 280.337C11.6645 276.849 6.8001 279.074 4.0676 281.148C3.88744 272.551 3.91747 239.361 14.6973 236.806Z" fill="#FFBE6E"/>
<path d="M35.9867 278.954C32.984 277.24 27.8793 275.707 22.3543 280.036L19.3516 236.506C30.4016 237.588 34.9958 270.476 35.9867 278.984V278.954Z" fill="#FFBE6E"/>
<path d="M66.7051 155.186C67.3357 156.419 67.666 157.802 67.5759 159.275L67.0654 166.49L67.3357 159.064C67.4257 157.681 67.1855 156.359 66.7051 155.186Z" fill="#FCDFD8"/>
<path d="M57.0961 150.827L60.4292 151.068C63.1917 151.248 65.5038 152.902 66.7049 155.186C67.1854 156.389 67.4256 157.681 67.3355 159.064L67.0652 166.49L65.9242 196.913C65.684 200.22 62.8314 202.745 59.4983 202.505L57.4865 202.354C54.1835 202.114 51.6612 199.228 51.9014 195.921L51.7212 193.817L48.8086 158.824L48.8686 157.952C49.1689 153.713 52.8323 150.497 57.0661 150.797L57.0961 150.827Z" fill="#FFC6AB"/>
<path d="M54.2435 175.208C55.2945 169.707 59.2581 168.053 62.1107 168.264C62.1107 168.264 62.2308 168.264 62.2909 168.264C62.3509 168.264 62.411 168.264 62.471 168.264C65.2636 168.955 68.5366 171.691 67.936 177.252C67.7258 179.086 67.876 181.251 68.1762 183.445L52.2017 181.01C53.1025 178.996 53.8832 176.982 54.2435 175.178V175.208Z" fill="#15679E"/>
<path d="M32.804 238.76C32.804 238.76 33.915 237.798 35.7467 236.956C38.8695 235.513 44.0943 234.401 49.259 239.121C49.8896 239.692 50.5202 240.353 51.1207 241.105L51.0606 241.436C51.0606 241.436 51.2108 241.346 51.2708 241.285C51.3309 241.346 51.3909 241.406 51.421 241.496L51.481 241.165C52.2918 240.624 53.1025 240.173 53.8532 239.812C60.1589 236.836 64.8132 239.421 67.3955 241.736C68.8969 243.089 69.6776 244.322 69.6776 244.322C75.8032 228.539 69.8278 195.56 69.4975 192.073C69.2873 189.999 68.6267 186.722 68.2063 183.445L52.2317 181.01C50.8805 184.016 49.229 186.932 48.4483 188.886C47.097 192.103 31.6329 221.835 32.834 238.73L32.804 238.76Z" fill="#FFD86E"/>
<path d="M60.3995 196.703L53.8535 239.842C60.1593 236.866 64.8135 239.452 67.3959 241.766C68.2667 233.229 70.9391 200.16 60.3995 196.703Z" fill="#FFBE6E"/>
<path d="M35.7168 236.956C38.8396 235.513 44.0644 234.401 49.2291 239.121L55.7451 195.981C44.6349 196.131 37.3983 228.569 35.7168 236.956Z" fill="#FFBE6E"/>
<path d="M38.8358 48.446L38.5552 52.4947L63.508 54.2285L63.7886 50.1798L38.8358 48.446Z" fill="white"/>
<path d="M66.2242 15.3655C66.4945 15.0649 66.9749 15.0649 67.2752 15.3655L69.4972 17.1392L68.8066 14.4636L67.3653 7.03819C67.2752 6.64737 67.4854 6.25656 67.8757 6.13631C68.2661 6.01606 68.6865 6.25656 68.7766 6.64738L70.6082 13.0206C70.6082 13.0206 70.6683 13.0206 70.6983 13.0206L68.7165 4.90375C68.6264 4.51294 68.8366 4.12212 69.257 4.00187C69.6473 3.91168 70.0677 4.12212 70.1578 4.543L72.7702 12.5697H72.8603L71.0286 5.05406C70.9385 4.66325 71.1487 4.24237 71.5691 4.15219C71.9595 4.062 72.3498 4.3025 72.4699 4.69331L74.9622 12.1789C74.9622 12.1789 75.0223 12.1789 75.0823 12.1789L73.5209 5.7455C73.4308 5.35468 73.641 4.96387 74.0614 4.84362C74.4517 4.75343 74.8421 4.96387 74.9622 5.35469L77.8148 14.2833C77.8148 14.2833 77.8148 14.3434 77.8148 14.4035C77.8148 14.4035 77.8148 14.4636 77.8448 14.4937L78.2352 19.6043C78.6856 21.2878 77.6947 23.0014 76.0432 23.4523H74.3617C72.7101 23.8732 71.3289 21.9793 70.5782 21.1976V21.0774L66.2843 16.4177C65.984 16.1471 65.984 15.6661 66.2843 15.3655H66.2242Z" fill="#FCDFD8"/>
</svg>
